<svg width="313" height="83" viewBox="0 0 313 83" fill="none" xmlns="http://www.w3.org/2000/svg">
<rect x="4" y="4" width="305" height="75" rx="25" fill="#F68D2E"/>
<rect x="0.5" y="0.5" width="312" height="82" rx="27.5" stroke="#F68D2E"/>
<path d="M45.7961 48C44.8749 47.9903 44.0798 47.9224 43.4107 47.7964C42.7513 47.6606 42.1889 47.4715 41.7234 47.2291C41.2677 46.977 40.8992 46.6667 40.618 46.2982C40.3464 45.92 40.1331 45.4836 39.978 44.9891C39.8228 44.4848 39.721 43.9224 39.6725 43.3018C39.624 42.6812 39.5998 41.9927 39.5998 41.2364V27.2436H42.3489V41.2364C42.3489 42.08 42.3731 42.7636 42.4216 43.2873C42.4798 43.8109 42.6204 44.2182 42.8434 44.5091C43.0761 44.7903 43.4204 44.9842 43.8761 45.0909C44.3416 45.1879 44.9816 45.2412 45.7961 45.2509V48ZM54.7784 44.2473C55.1372 44.0921 55.4669 43.8982 55.7675 43.6655C56.0778 43.4327 56.3445 43.1709 56.5675 42.88C56.8002 42.5794 56.9796 42.2545 57.1057 41.9055C57.2317 41.5564 57.2948 41.1782 57.2948 40.7709C57.2948 40.2861 57.193 39.8788 56.9893 39.5491C56.7857 39.2097 56.5433 38.9382 56.262 38.7345C55.9808 38.5212 55.6851 38.3709 55.3748 38.2836C55.0742 38.1867 54.8172 38.1382 54.6039 38.1382C54.2063 38.1382 53.8378 38.2012 53.4984 38.3273C53.1687 38.4436 52.8778 38.6085 52.6257 38.8218C52.3833 39.0352 52.1893 39.2921 52.0439 39.5927C51.9081 39.8933 51.8402 40.2182 51.8402 40.5673C51.8402 40.9842 51.8936 41.3624 52.0002 41.7018C52.1166 42.0315 52.2911 42.3418 52.5239 42.6327C52.7663 42.9139 53.0717 43.1855 53.4402 43.4473C53.8087 43.7091 54.2548 43.9758 54.7784 44.2473ZM58.4875 32.6982C59.5542 33.8133 60.5384 34.8558 61.4402 35.8255C61.8281 36.2424 62.216 36.6642 62.6039 37.0909C62.9917 37.5079 63.3505 37.9103 63.6802 38.2982C64.0196 38.6764 64.3154 39.0255 64.5675 39.3455C64.8293 39.6558 65.0233 39.9079 65.1493 40.1018C65.4111 40.5285 65.6245 40.9406 65.7893 41.3382C65.9639 41.7358 66.0802 42.1382 66.1384 42.5455C66.2063 42.9527 66.2208 43.3697 66.182 43.7964C66.1433 44.223 66.0511 44.6836 65.9057 45.1782C65.7505 45.7406 65.5033 46.2545 65.1639 46.72C64.8342 47.1758 64.4317 47.5685 63.9566 47.8982C63.4814 48.2279 62.9433 48.48 62.342 48.6545C61.7408 48.8388 61.0911 48.9309 60.393 48.9309C59.7336 48.9309 59.0499 48.8436 58.342 48.6691C57.6342 48.4945 56.902 48.223 56.1457 47.8545C55.9323 47.7673 55.7336 47.68 55.5493 47.5927C55.3845 47.5152 55.2148 47.4376 55.0402 47.36C54.8754 47.2824 54.7396 47.2145 54.633 47.1564C53.7214 47.4376 52.6548 47.6509 51.433 47.7964C50.2111 47.9321 48.8923 48 47.4766 48H45.3384V45.2509H47.4766C48.1069 45.2509 48.7566 45.2412 49.4257 45.2218C50.1045 45.2024 50.7057 45.1588 51.2293 45.0909C50.5311 44.48 50.022 43.8109 49.702 43.0836C49.382 42.3467 49.222 41.5079 49.222 40.5673C49.222 39.8303 49.3578 39.1515 49.6293 38.5309C49.9008 37.9006 50.2742 37.3576 50.7493 36.9018C51.2342 36.4461 51.8014 36.0921 52.4511 35.84C53.1105 35.5782 53.8281 35.4473 54.6039 35.4473C55.1857 35.4473 55.719 35.5297 56.2039 35.6945C56.6887 35.8594 57.1299 36.0824 57.5275 36.3636C57.9251 36.6352 58.2693 36.9552 58.5602 37.3236C58.8608 37.6824 59.113 38.0606 59.3166 38.4582C59.5202 38.8461 59.6705 39.2436 59.7675 39.6509C59.8742 40.0485 59.9275 40.4218 59.9275 40.7709C59.9275 41.7697 59.7384 42.6715 59.3602 43.4764C58.9917 44.2715 58.4439 44.9745 57.7166 45.5855C58.1239 45.7503 58.5554 45.8861 59.0111 45.9927C59.4766 46.0994 59.9372 46.1527 60.393 46.1527C60.6839 46.1527 60.9699 46.1333 61.2511 46.0945C61.542 46.0558 61.8136 45.9782 62.0657 45.8618C62.3275 45.7455 62.5651 45.5903 62.7784 45.3964C62.9917 45.1927 63.176 44.9309 63.3311 44.6109C63.5251 44.2133 63.5736 43.777 63.4766 43.3018C63.3796 42.817 63.176 42.303 62.8657 41.76C62.5554 41.217 62.1627 40.6545 61.6875 40.0727C61.2123 39.4812 60.6887 38.88 60.1166 38.2691C59.5445 37.6582 58.9481 37.0473 58.3275 36.4364C57.7069 35.8255 57.1008 35.2194 56.5093 34.6182L58.4875 32.6982ZM96.0455 48H95.6818C94.1303 48 92.7727 47.6703 91.6091 47.0109C90.4552 46.3418 89.5679 45.4109 88.9473 44.2182C88.637 44.6448 88.2636 45.0182 87.8273 45.3382C87.4006 45.6485 86.9158 45.9248 86.3727 46.1673C86.0624 46.2933 85.7036 46.3952 85.2964 46.4727C84.8891 46.5503 84.4576 46.5891 84.0018 46.5891C83.5461 46.5891 83.0758 46.5358 82.5909 46.4291C82.1158 46.3224 81.6503 46.143 81.1945 45.8909C80.4964 45.5224 79.9339 45.0376 79.5073 44.4364C79.0903 43.8255 78.8139 43.1079 78.6782 42.2836C78.4939 41.2752 78.5521 40.3006 78.8527 39.36C79.163 38.4097 79.6964 37.5418 80.4527 36.7564C81.7812 35.3988 83.6576 34.3612 86.0818 33.6436L85.8055 32.0727L88.4818 31.5055C88.7145 32.4752 88.9182 33.3382 89.0927 34.0945C89.2673 34.8412 89.4224 35.5152 89.5582 36.1164C89.5873 36.2327 89.6309 36.4267 89.6891 36.6982C89.757 36.9697 89.8345 37.2848 89.9218 37.6436C90.0091 37.9927 90.1012 38.3709 90.1982 38.7782C90.2952 39.1855 90.3921 39.583 90.4891 39.9709C90.5861 40.3588 90.6782 40.7224 90.7655 41.0618C90.8527 41.4012 90.9303 41.6824 90.9982 41.9055C91.1921 42.6327 91.4782 43.2194 91.8564 43.6655C92.2345 44.1018 92.6467 44.4412 93.0927 44.6836C93.5388 44.9164 93.9897 45.0715 94.4455 45.1491C94.9109 45.217 95.323 45.2509 95.6818 45.2509H96.0455V48ZM86.8091 36.2909C85.8491 36.5721 85.0006 36.9067 84.2636 37.2945C83.5267 37.6824 82.9158 38.1139 82.4309 38.5891C81.9558 39.0545 81.6164 39.5588 81.4127 40.1018C81.2091 40.6448 81.1606 41.2121 81.2673 41.8036C81.3352 42.2109 81.4806 42.5552 81.7036 42.8364C81.9267 43.1079 82.1885 43.3261 82.4891 43.4909C82.7024 43.617 82.9352 43.7091 83.1873 43.7673C83.4394 43.8158 83.6915 43.8448 83.9436 43.8545C84.1958 43.8545 84.4382 43.8352 84.6709 43.7964C84.9133 43.7576 85.1267 43.6994 85.3109 43.6218C86.5327 43.1176 87.2455 42.2012 87.4491 40.8727C87.517 40.3879 87.5267 39.9564 87.4782 39.5782C87.4394 39.1903 87.4055 38.9285 87.3764 38.7927L86.8091 36.2909ZM95.513 48V45.2509H101.098C102.184 45.2509 103.057 45.1733 103.717 45.0182C104.386 44.863 104.904 44.6691 105.273 44.4364C105.641 44.2036 105.889 43.9515 106.015 43.68C106.151 43.3988 106.233 43.1321 106.262 42.88H104.051C103.799 42.88 103.518 42.8703 103.207 42.8509C102.897 42.8315 102.572 42.7976 102.233 42.7491C101.903 42.6909 101.569 42.6085 101.229 42.5018C100.89 42.3952 100.56 42.2545 100.24 42.08C99.9784 41.9248 99.7117 41.7309 99.4402 41.4982C99.1687 41.2655 98.9214 40.9794 98.6984 40.64C98.4851 40.2909 98.3057 39.8836 98.1602 39.4182C98.0245 38.943 97.9566 38.3903 97.9566 37.76C97.9566 36.9745 98.0923 36.2327 98.3639 35.5345C98.6354 34.8267 99.0233 34.2206 99.5275 33.7164C100.032 33.2121 100.609 32.8291 101.258 32.5673C101.908 32.3055 102.601 32.1745 103.338 32.1745C104.182 32.1745 104.958 32.3539 105.666 32.7127C106.374 33.0715 106.97 33.5855 107.455 34.2545C107.978 34.9527 108.366 35.8158 108.618 36.8436C108.871 37.8715 108.997 39.0497 108.997 40.3782V42.3855C108.997 43.3455 108.803 44.1988 108.415 44.9455C108.037 45.6921 107.46 46.2982 106.684 46.7636C105.394 47.5879 103.532 48 101.098 48H95.513ZM103.338 34.9236C103.018 34.9236 102.689 34.9818 102.349 35.0982C102.02 35.2048 101.719 35.3745 101.448 35.6073C101.186 35.8303 100.968 36.1212 100.793 36.48C100.628 36.8388 100.546 37.2655 100.546 37.76C100.546 38.08 100.58 38.3515 100.648 38.5745C100.715 38.7879 100.803 38.9673 100.909 39.1127C101.016 39.2485 101.128 39.36 101.244 39.4473C101.36 39.5345 101.472 39.6073 101.578 39.6655C101.86 39.8303 102.204 39.9515 102.611 40.0291C103.018 40.097 103.498 40.1309 104.051 40.1309H106.291C106.272 39.1709 106.17 38.3321 105.986 37.6145C105.811 36.897 105.569 36.3103 105.258 35.8545C104.793 35.2339 104.153 34.9236 103.338 34.9236ZM100.531 26.3564L103.004 23.8545L105.535 26.3855L103.033 28.8873L100.531 26.3564ZM121.559 48H120.934C120.003 48 119.145 47.8158 118.359 47.4473C118.359 48.8048 118.17 50.017 117.792 51.0836C117.414 52.1503 116.861 53.0521 116.134 53.7891C115.406 54.5358 114.51 55.103 113.443 55.4909C112.386 55.8788 111.169 56.0727 109.792 56.0727H107.785V53.3236H109.792C110.791 53.3236 111.654 53.2024 112.381 52.96C113.118 52.7273 113.724 52.3636 114.199 51.8691C114.684 51.3745 115.038 50.7442 115.261 49.9782C115.494 49.2121 115.61 48.3006 115.61 47.2436V38.1673H118.359V42.9818C118.359 43.5248 118.471 43.9515 118.694 44.2618C118.926 44.5624 119.193 44.7855 119.494 44.9309C119.794 45.0764 120.08 45.1685 120.352 45.2073C120.633 45.2364 120.827 45.2509 120.934 45.2509H121.559V48ZM134.289 48C134.124 48 133.935 47.9806 133.721 47.9418C133.508 47.8933 133.256 47.8061 132.965 47.68C132.674 47.5539 132.34 47.3745 131.961 47.1418C131.583 46.9091 131.142 46.6036 130.638 46.2255C129.513 46.8364 128.199 47.2873 126.696 47.5782C125.193 47.8594 123.515 48 121.663 48H120.82V45.2509H121.663C123.06 45.2509 124.31 45.1733 125.416 45.0182C126.521 44.8533 127.457 44.6206 128.223 44.32C127.719 43.8933 127.215 43.4521 126.71 42.9964C126.216 42.5406 125.76 42.1139 125.343 41.7164C124.926 41.3091 124.563 40.96 124.252 40.6691C123.952 40.3685 123.748 40.16 123.641 40.0436V39.4618C123.641 39.2776 123.651 39.0788 123.67 38.8655C123.69 38.6424 123.729 38.4145 123.787 38.1818C123.845 37.9491 123.932 37.7164 124.049 37.4836C124.165 37.2412 124.32 37.0085 124.514 36.7855C125.251 35.9612 126.424 35.5491 128.034 35.5491H132.849C133.653 35.5491 134.381 35.7479 135.03 36.1455C135.68 36.5333 136.155 37.0715 136.456 37.76C136.679 38.2061 136.786 38.6473 136.776 39.0836C136.776 39.5103 136.693 39.9321 136.529 40.3491C136.373 40.7564 136.155 41.1539 135.874 41.5418C135.603 41.92 135.302 42.2885 134.972 42.6473C134.643 42.9964 134.303 43.3309 133.954 43.6509C133.615 43.9709 133.3 44.2715 133.009 44.5527C133.222 44.6982 133.406 44.8194 133.561 44.9164C133.717 45.0036 133.843 45.0715 133.94 45.12C134.046 45.1685 134.124 45.2024 134.172 45.2218C134.23 45.2315 134.269 45.2412 134.289 45.2509H139.612V48H134.289ZM126.42 38.9382C126.613 39.1224 126.885 39.3794 127.234 39.7091C127.583 40.0291 127.961 40.3782 128.369 40.7564C128.786 41.1345 129.203 41.5127 129.62 41.8909C130.046 42.2691 130.429 42.5988 130.769 42.88C131.292 42.463 131.792 42.0218 132.267 41.5564C132.752 41.0909 133.237 40.5527 133.721 39.9418C133.828 39.8061 133.915 39.6509 133.983 39.4764C134.061 39.2921 134.051 39.0982 133.954 38.8945C133.877 38.7491 133.75 38.6133 133.576 38.4873C133.401 38.3612 133.159 38.2982 132.849 38.2982H128.034C127.753 38.2982 127.52 38.3127 127.336 38.3418C127.161 38.3612 127.016 38.3903 126.9 38.4291C126.793 38.4679 126.71 38.5067 126.652 38.5455C126.604 38.5745 126.57 38.6036 126.55 38.6327C126.521 38.6521 126.497 38.6909 126.478 38.7491C126.458 38.7976 126.439 38.8606 126.42 38.9382ZM147.849 36.16C147.869 36.2182 147.908 36.3733 147.966 36.6255C148.024 36.8776 148.087 37.1927 148.155 37.5709C148.232 37.9394 148.315 38.3515 148.402 38.8073C148.489 39.2533 148.567 39.7091 148.635 40.1745C148.703 40.6303 148.761 41.0715 148.809 41.4982C148.858 41.9248 148.882 42.2982 148.882 42.6182C148.882 43.5491 148.727 44.3539 148.417 45.0327C148.116 45.7018 147.719 46.2594 147.224 46.7055C146.739 47.1418 146.191 47.4667 145.58 47.68C144.969 47.8933 144.354 48 143.733 48H137.711V45.2509H143.733C143.879 45.2509 144.082 45.2315 144.344 45.1927C144.615 45.1442 144.882 45.0327 145.144 44.8582C145.415 44.6836 145.648 44.4218 145.842 44.0727C146.046 43.7236 146.148 43.2388 146.148 42.6182C146.148 42.4048 146.128 42.1382 146.089 41.8182C146.06 41.4885 146.017 41.1394 145.959 40.7709C145.91 40.3927 145.852 40.0097 145.784 39.6218C145.716 39.2242 145.648 38.8509 145.58 38.5018C145.512 38.1527 145.449 37.8424 145.391 37.5709C145.333 37.2994 145.285 37.0958 145.246 36.96L147.849 36.16ZM147.151 33.0764L144.853 30.7491L147.122 28.3927L149.479 30.7491L147.151 33.0764ZM141.58 33.0473L139.282 30.72L141.551 28.3636L143.908 30.72L141.58 33.0473ZM168.699 48C167.826 48 167.021 47.8691 166.284 47.6073C165.557 47.3358 164.922 46.9673 164.379 46.5018C163.846 46.0267 163.429 45.4691 163.128 44.8291C162.827 44.1794 162.677 43.4764 162.677 42.72C162.677 41.7503 162.803 40.897 163.055 40.16C163.317 39.4133 163.647 38.7442 164.044 38.1527C164.442 37.5515 164.878 37.0036 165.353 36.5091C165.829 36.0145 166.284 35.5297 166.721 35.0545L165.819 34.0509L167.855 32.2036C168.359 32.7661 168.878 33.3333 169.412 33.9055C169.955 34.4679 170.483 35.04 170.997 35.6218C171.511 36.1939 171.991 36.7709 172.437 37.3527C172.893 37.9248 173.29 38.5018 173.63 39.0836C173.969 39.6558 174.236 40.2327 174.43 40.8145C174.633 41.3867 174.73 41.9539 174.721 42.5164C174.711 43.3018 174.551 44.0388 174.241 44.7273C173.94 45.4061 173.499 46.0073 172.917 46.5309C172.374 46.9964 171.739 47.36 171.012 47.6218C170.294 47.8739 169.523 48 168.699 48ZM168.51 37.0182C168.141 37.4352 167.773 37.8521 167.404 38.2691C167.036 38.6764 166.706 39.1079 166.415 39.5636C166.124 40.0194 165.887 40.5042 165.702 41.0182C165.518 41.5321 165.426 42.0994 165.426 42.72C165.426 43.1564 165.518 43.5345 165.702 43.8545C165.896 44.1648 166.144 44.4267 166.444 44.64C166.755 44.8436 167.104 44.9988 167.492 45.1055C167.889 45.2024 168.292 45.2509 168.699 45.2509C169.193 45.2509 169.639 45.1879 170.037 45.0618C170.444 44.9261 170.789 44.737 171.07 44.4945C171.361 44.2521 171.584 43.9661 171.739 43.6364C171.894 43.297 171.972 42.9236 171.972 42.5164C171.972 42.0315 171.87 41.5564 171.666 41.0909C171.462 40.6158 171.196 40.1503 170.866 39.6945C170.546 39.2388 170.178 38.7879 169.761 38.3418C169.344 37.8958 168.927 37.4545 168.51 37.0182ZM194.619 45.2509V48H194.081C192.636 48 191.302 47.3988 190.081 46.1964C189.353 47.1758 188.078 47.7964 186.255 48.0582C185.916 48.1067 185.557 48.1455 185.179 48.1745C184.801 48.2036 184.408 48.2182 184.001 48.2182C183.506 48.2182 183.007 48.1939 182.502 48.1455C181.998 48.1067 181.504 48.0436 181.019 47.9564C180.544 47.8594 180.083 47.7382 179.637 47.5927C179.191 47.4376 178.788 47.2582 178.43 47.0545L177.237 46.3564L178.604 43.9564L179.811 44.6545C180.151 44.8485 180.563 45.0085 181.048 45.1345C181.542 45.2509 182.066 45.3382 182.619 45.3964C183.171 45.4448 183.729 45.4642 184.291 45.4545C184.854 45.4352 185.378 45.3915 185.862 45.3236C186.425 45.2364 186.885 45.1152 187.244 44.96C187.613 44.7952 187.845 44.6109 187.942 44.4073C188.078 44.2521 188.098 44.0194 188.001 43.7091C187.913 43.3988 187.753 43.0642 187.521 42.7055L182.066 34.4L184.379 32.8873L190.022 41.4982C190.313 41.9152 190.604 42.3467 190.895 42.7927C191.196 43.2291 191.511 43.6315 191.841 44C192.17 44.3588 192.515 44.6594 192.873 44.9018C193.242 45.1345 193.644 45.2509 194.081 45.2509H194.619ZM203.403 44.2473C203.762 44.0921 204.092 43.8982 204.392 43.6655C204.703 43.4327 204.969 43.1709 205.193 42.88C205.425 42.5794 205.605 42.2545 205.731 41.9055C205.857 41.5564 205.92 41.1782 205.92 40.7709C205.92 40.2861 205.818 39.8788 205.614 39.5491C205.411 39.2097 205.168 38.9382 204.887 38.7345C204.606 38.5212 204.31 38.3709 204 38.2836C203.699 38.1867 203.442 38.1382 203.229 38.1382C202.831 38.1382 202.463 38.2012 202.123 38.3273C201.794 38.4436 201.503 38.6085 201.251 38.8218C201.008 39.0352 200.814 39.2921 200.669 39.5927C200.533 39.8933 200.465 40.2182 200.465 40.5673C200.465 40.9842 200.519 41.3624 200.625 41.7018C200.742 42.0315 200.916 42.3418 201.149 42.6327C201.391 42.9139 201.697 43.1855 202.065 43.4473C202.434 43.7091 202.88 43.9758 203.403 44.2473ZM207.113 32.6982C208.179 33.8133 209.163 34.8558 210.065 35.8255C210.453 36.2424 210.841 36.6642 211.229 37.0909C211.617 37.5079 211.976 37.9103 212.305 38.2982C212.645 38.6764 212.94 39.0255 213.193 39.3455C213.454 39.6558 213.648 39.9079 213.774 40.1018C214.036 40.5285 214.249 40.9406 214.414 41.3382C214.589 41.7358 214.705 42.1382 214.763 42.5455C214.831 42.9527 214.846 43.3697 214.807 43.7964C214.768 44.223 214.676 44.6836 214.531 45.1782C214.376 45.7406 214.128 46.2545 213.789 46.72C213.459 47.1758 213.057 47.5685 212.582 47.8982C212.106 48.2279 211.568 48.48 210.967 48.6545C210.366 48.8388 209.716 48.9309 209.018 48.9309C208.359 48.9309 207.675 48.8436 206.967 48.6691C206.259 48.4945 205.527 48.223 204.771 47.8545C204.557 47.7673 204.359 47.68 204.174 47.5927C204.009 47.5152 203.84 47.4376 203.665 47.36C203.5 47.2824 203.365 47.2145 203.258 47.1564C202.346 47.4376 201.28 47.6509 200.058 47.7964C198.836 47.9321 197.517 48 196.102 48H193.963V45.2509H196.102C196.732 45.2509 197.382 45.2412 198.051 45.2218C198.729 45.2024 199.331 45.1588 199.854 45.0909C199.156 44.48 198.647 43.8109 198.327 43.0836C198.007 42.3467 197.847 41.5079 197.847 40.5673C197.847 39.8303 197.983 39.1515 198.254 38.5309C198.526 37.9006 198.899 37.3576 199.374 36.9018C199.859 36.4461 200.426 36.0921 201.076 35.84C201.736 35.5782 202.453 35.4473 203.229 35.4473C203.811 35.4473 204.344 35.5297 204.829 35.6945C205.314 35.8594 205.755 36.0824 206.153 36.3636C206.55 36.6352 206.894 36.9552 207.185 37.3236C207.486 37.6824 207.738 38.0606 207.942 38.4582C208.145 38.8461 208.296 39.2436 208.392 39.6509C208.499 40.0485 208.552 40.4218 208.552 40.7709C208.552 41.7697 208.363 42.6715 207.985 43.4764C207.617 44.2715 207.069 44.9745 206.342 45.5855C206.749 45.7503 207.18 45.8861 207.636 45.9927C208.102 46.0994 208.562 46.1527 209.018 46.1527C209.309 46.1527 209.595 46.1333 209.876 46.0945C210.167 46.0558 210.439 45.9782 210.691 45.8618C210.952 45.7455 211.19 45.5903 211.403 45.3964C211.617 45.1927 211.801 44.9309 211.956 44.6109C212.15 44.2133 212.199 43.777 212.102 43.3018C212.005 42.817 211.801 42.303 211.491 41.76C211.18 41.217 210.788 40.6545 210.312 40.0727C209.837 39.4812 209.314 38.88 208.742 38.2691C208.169 37.6582 207.573 37.0473 206.953 36.4364C206.332 35.8255 205.726 35.2194 205.134 34.6182L207.113 32.6982ZM225.484 48C224.562 47.9903 223.767 47.9224 223.098 47.7964C222.439 47.6606 221.876 47.4715 221.411 47.2291C220.955 46.977 220.587 46.6667 220.305 46.2982C220.034 45.92 219.821 45.4836 219.665 44.9891C219.51 44.4848 219.408 43.9224 219.36 43.3018C219.312 42.6812 219.287 41.9927 219.287 41.2364V27.2436H222.036V41.2364C222.036 42.08 222.061 42.7636 222.109 43.2873C222.167 43.8109 222.308 44.2182 222.531 44.5091C222.764 44.7903 223.108 44.9842 223.564 45.0909C224.029 45.1879 224.669 45.2412 225.484 45.2509V48ZM250.539 48C249.608 48 248.783 47.8691 248.066 47.6073C247.348 47.3358 246.747 46.9333 246.262 46.4H246.248L246.03 46.6327C245.554 47.0885 245.016 47.4327 244.415 47.6655C243.814 47.8885 243.169 48 242.48 48C240.667 48 239.261 47.4764 238.262 46.4291C237.777 46.943 237.22 47.3309 236.59 47.5927C235.959 47.8448 235.319 47.9806 234.67 48H234.48C232.764 47.9709 231.426 47.4667 230.466 46.4873C230.408 46.5648 230.34 46.6327 230.262 46.6909C229.283 47.5636 227.901 48 226.117 48H225.128V45.2509H226.117C226.737 45.2509 227.237 45.1927 227.615 45.0764C228.003 44.96 228.303 44.7903 228.517 44.5673C228.73 44.3345 228.871 44.0582 228.939 43.7382C229.016 43.4085 229.055 43.0352 229.055 42.6182V38.1818H231.804V42.5455C231.804 43.4861 232.032 44.1697 232.488 44.5964C232.943 45.023 233.656 45.2412 234.626 45.2509C234.8 45.2412 235.014 45.2073 235.266 45.1491C235.528 45.0909 235.775 44.9697 236.008 44.7855C236.25 44.6012 236.459 44.3394 236.633 44C236.808 43.6509 236.895 43.1903 236.895 42.6182V38.1818H239.63V42.5455C239.63 43.4861 239.853 44.1745 240.299 44.6109C240.754 45.0376 241.482 45.2509 242.48 45.2509C242.762 45.2509 243.043 45.2073 243.324 45.12C243.605 45.0327 243.857 44.8873 244.08 44.6836C244.303 44.48 244.488 44.2182 244.633 43.8982C244.779 43.5685 244.861 43.1661 244.88 42.6909V38.1818H247.63V42.6909C247.649 43.583 247.896 44.2327 248.371 44.64C248.847 45.0473 249.569 45.2509 250.539 45.2509H251.426V48H250.539ZM240.342 28.1455L238.277 30.1673L236.24 28.1455L238.335 26.0655L240.342 28.1455ZM241.055 34.72L238.757 32.3927L241.026 30.0364L243.382 32.3927L241.055 34.72ZM235.484 34.6909L233.186 32.3636L235.455 30.0073L237.811 32.3636L235.484 34.6909ZM261.567 45.9491C261.635 45.9491 261.727 45.9442 261.843 45.9345C261.969 45.9248 262.1 45.8861 262.236 45.8182C262.382 45.7503 262.522 45.6485 262.658 45.5127C262.803 45.3673 262.929 45.1685 263.036 44.9164C263.153 44.6545 263.245 44.3248 263.312 43.9273C263.39 43.52 263.429 43.0255 263.429 42.4436C263.429 42.337 263.419 42.1673 263.4 41.9345C263.38 41.7018 263.337 41.4448 263.269 41.1636C263.201 40.8727 263.099 40.577 262.963 40.2764C262.837 39.9758 262.663 39.6994 262.44 39.4473C262.217 39.1952 261.945 38.9915 261.625 38.8364C261.305 38.6715 260.917 38.5891 260.462 38.5891C260.035 38.5891 259.671 38.6667 259.371 38.8218C259.08 38.9673 258.832 39.1709 258.629 39.4327C258.425 39.6945 258.256 40.0048 258.12 40.3636C257.984 40.7127 257.858 41.0958 257.742 41.5127C257.625 41.92 257.509 42.3515 257.392 42.8073C257.276 43.2533 257.14 43.6994 256.985 44.1455C257.489 44.3976 257.955 44.6352 258.382 44.8582C258.808 45.0812 259.206 45.2752 259.574 45.44C259.943 45.5952 260.287 45.7212 260.607 45.8182C260.937 45.9055 261.257 45.9491 261.567 45.9491ZM260.462 35.8545C261.412 35.8545 262.236 36.0388 262.934 36.4073C263.642 36.7661 264.229 37.2509 264.694 37.8618C265.16 38.4727 265.504 39.1758 265.727 39.9709C265.96 40.7661 266.076 41.5903 266.076 42.4436C266.076 43.3842 265.994 44.1939 265.829 44.8727C265.674 45.5515 265.465 46.1236 265.203 46.5891C264.942 47.0448 264.646 47.4133 264.316 47.6945C263.996 47.9758 263.666 48.1891 263.327 48.3345C262.997 48.48 262.677 48.577 262.367 48.6255C262.057 48.6739 261.79 48.6982 261.567 48.6982C261.092 48.6982 260.636 48.6497 260.2 48.5527C259.763 48.4558 259.317 48.3152 258.862 48.1309C258.406 47.9564 257.926 47.7382 257.422 47.4764C256.927 47.2145 256.379 46.9188 255.778 46.5891C254.983 47.5297 253.96 48 252.709 48H251.036V45.2509H252.709C253.077 45.2509 253.378 45.1152 253.611 44.8436C253.853 44.5721 254.062 44.2182 254.236 43.7818C254.411 43.3455 254.571 42.8461 254.716 42.2836C254.862 41.7212 255.026 41.1442 255.211 40.5527C255.405 39.9612 255.632 39.3842 255.894 38.8218C256.156 38.2594 256.486 37.76 256.883 37.3236C257.291 36.8873 257.78 36.5333 258.352 36.2618C258.934 35.9903 259.637 35.8545 260.462 35.8545Z" fill="white"/>
</svg>
