<svg width="44" height="44" viewBox="0 0 44 44" fill="none" xmlns="http://www.w3.org/2000/svg">
<path d="M26.583 27.4999C25.0666 27.4999 23.833 28.7335 23.833 30.2499V41.2499C23.833 42.7664 25.0666 43.9999 26.583 43.9999C28.0994 43.9999 29.333 42.7664 29.333 41.2499V30.2499C29.333 28.7335 28.0994 27.4999 26.583 27.4999Z" fill="#5B5B5B"/>
<path opacity="0.1" d="M26.583 43.5416C25.0666 43.5416 23.833 42.3081 23.833 40.7916V41.25C23.833 42.7664 25.0666 44 26.583 44C28.0994 44 29.333 42.7664 29.333 41.25V40.7916C29.333 42.3081 28.0994 43.5416 26.583 43.5416Z" fill="black"/>
<path d="M17.4165 27.4999C15.9001 27.4999 14.6665 28.7335 14.6665 30.2499V41.2499C14.6665 42.7664 15.9001 43.9999 17.4165 43.9999C18.9329 43.9999 20.1665 42.7664 20.1665 41.2499V30.2499C20.1665 28.7335 18.9329 27.4999 17.4165 27.4999Z" fill="#5B5B5B"/>
<path opacity="0.1" d="M17.4165 43.5416C15.9001 43.5416 14.6665 42.3081 14.6665 40.7916V41.25C14.6665 42.7664 15.9001 44 17.4165 44C18.9329 44 20.1665 42.7664 20.1665 41.25V40.7916C20.1665 42.3081 18.9329 43.5416 17.4165 43.5416Z" fill="black"/>
<path d="M33 14.6666H11V31.1666C11 33.1917 12.6416 34.8333 14.6667 34.8333H29.3333C31.3584 34.8333 33 33.1917 33 31.1666V14.6666Z" fill="#5B5B5B"/>
<path d="M37.583 14.6666C36.0666 14.6666 34.833 15.9002 34.833 17.4166V28.4166C34.833 29.9331 36.0666 31.1666 37.583 31.1666C39.0994 31.1666 40.333 29.9331 40.333 28.4166V17.4166C40.333 15.9002 39.0994 14.6666 37.583 14.6666Z" fill="#5B5B5B"/>
<path d="M16.7315 5.15263C16.4254 5.15263 16.1255 4.99956 15.9518 4.72026L13.8875 1.40092C13.6208 0.971237 13.7523 0.405482 14.182 0.137823C14.6135 -0.128046 15.1775 0.00175482 15.4451 0.432338L17.5094 3.75167C17.7762 4.18136 17.6446 4.74712 17.2149 5.01478C17.0636 5.10787 16.8971 5.15263 16.7315 5.15263Z" fill="#5B5B5B"/>
<path d="M27.268 5.15263C27.1024 5.15263 26.9359 5.10787 26.7846 5.01478C26.3549 4.74712 26.2233 4.18136 26.4901 3.75167L28.5543 0.432338C28.822 0.0017549 29.386 -0.128047 29.8174 0.137823C30.2471 0.405482 30.3787 0.971237 30.112 1.40092L28.0477 4.72026C27.874 4.99956 27.5741 5.15263 27.268 5.15263Z" fill="#5B5B5B"/>
<path d="M22 1.83325C15.9248 1.83325 11 6.7581 11 12.8333H33C33 6.7581 28.0752 1.83325 22 1.83325Z" fill="#5B5B5B"/>
<path opacity="0.2" d="M33 14.6666H11V15.125H33V14.6666Z" fill="white"/>
<path opacity="0.1" d="M29.3333 34.375H14.6667C12.6417 34.375 11 32.7333 11 30.7083V31.1666C11 33.1917 12.6417 34.8333 14.6667 34.8333H29.3333C31.3583 34.8333 33 33.1917 33 31.1666V30.7083C33 32.7333 31.3583 34.375 29.3333 34.375Z" fill="black"/>
<path opacity="0.2" d="M37.583 14.6666C36.0666 14.6666 34.833 15.9002 34.833 17.4166V17.875C34.833 16.3585 36.0666 15.125 37.583 15.125C39.0994 15.125 40.333 16.3585 40.333 17.875V17.4166C40.333 15.9002 39.0994 14.6666 37.583 14.6666Z" fill="white"/>
<path opacity="0.1" d="M37.583 30.7083C36.0666 30.7083 34.833 29.4748 34.833 27.9583V28.4166C34.833 29.9331 36.0666 31.1666 37.583 31.1666C39.0994 31.1666 40.333 29.9331 40.333 28.4166V27.9583C40.333 29.4748 39.0994 30.7083 37.583 30.7083Z" fill="black"/>
<path opacity="0.2" d="M21.9997 2.29159C26.6085 2.29159 30.5528 4.96856 32.268 8.88017C30.6953 4.72787 26.7032 1.83325 21.9997 1.83325C17.2962 1.83325 13.3012 4.73546 11.7285 8.88776C13.4438 4.97615 17.391 2.29159 21.9997 2.29159Z" fill="white"/>
<path d="M17.4167 9.16659C17.9229 9.16659 18.3333 8.75618 18.3333 8.24992C18.3333 7.74366 17.9229 7.33325 17.4167 7.33325C16.9104 7.33325 16.5 7.74366 16.5 8.24992C16.5 8.75618 16.9104 9.16659 17.4167 9.16659Z" fill="white"/>
<path d="M26.5832 9.16659C27.0894 9.16659 27.4998 8.75618 27.4998 8.24992C27.4998 7.74366 27.0894 7.33325 26.5832 7.33325C26.0769 7.33325 25.6665 7.74366 25.6665 8.24992C25.6665 8.75618 26.0769 9.16659 26.5832 9.16659Z" fill="white"/>
<path opacity="0.1" d="M11.0232 12.375C11.0168 12.5282 11 12.6786 11 12.8333H33C33 12.6786 32.9832 12.5282 32.9768 12.375H11.0232Z" fill="black"/>
<path d="M6.4165 14.6666C4.90007 14.6666 3.6665 15.9002 3.6665 17.4166V28.4166C3.6665 29.9331 4.90007 31.1666 6.4165 31.1666C7.93294 31.1666 9.1665 29.9331 9.1665 28.4166V17.4166C9.1665 15.9002 7.93294 14.6666 6.4165 14.6666Z" fill="#5B5B5B"/>
<path opacity="0.2" d="M6.4165 14.6666C4.90007 14.6666 3.6665 15.9002 3.6665 17.4166V17.875C3.6665 16.3585 4.90007 15.125 6.4165 15.125C7.93294 15.125 9.1665 16.3585 9.1665 17.875V17.4166C9.1665 15.9002 7.93294 14.6666 6.4165 14.6666Z" fill="white"/>
<path opacity="0.1" d="M6.4165 30.7083C4.90007 30.7083 3.6665 29.4748 3.6665 27.9583V28.4166C3.6665 29.9331 4.90007 31.1666 6.4165 31.1666C7.93294 31.1666 9.1665 29.9331 9.1665 28.4166V27.9583C9.1665 29.4748 7.93294 30.7083 6.4165 30.7083Z" fill="black"/>
<path d="M10.9998 31.1666C10.9998 33.1916 12.6415 34.8333 14.6665 34.8333V41.25C14.6665 42.7664 15.9001 44 17.4165 44C18.9329 44 20.1665 42.7664 20.1665 41.25V34.8333H23.8332V41.25C23.8332 42.7664 25.0667 44 26.5832 44C28.0996 44 29.3332 42.7664 29.3332 41.25V34.8333C31.3582 34.8333 32.9998 33.1916 32.9998 31.1666V14.6666H10.9998V31.1666ZM37.5832 14.6666C36.0667 14.6666 34.8332 15.9002 34.8332 17.4166V28.4166C34.8332 29.9331 36.0667 31.1666 37.5832 31.1666C39.0996 31.1666 40.3332 29.9331 40.3332 28.4166V17.4166C40.3332 15.9002 39.0996 14.6666 37.5832 14.6666ZM28.5083 3.97972L30.112 1.40092C30.3787 0.971237 30.2472 0.405482 29.8175 0.137823C29.386 -0.128046 28.822 0.00175496 28.5544 0.432338L26.9464 3.01796C25.458 2.26634 23.7811 1.8333 21.9998 1.8333C20.2185 1.8333 18.5416 2.26634 17.0533 3.01796L15.4453 0.432338C15.1777 0.00175496 14.6137 -0.128047 14.1822 0.137823C13.7525 0.405482 13.6209 0.971237 13.8877 1.40092L15.4914 3.97972C12.772 5.98247 10.9998 9.19696 10.9998 12.8333H32.9998C32.9998 9.19696 31.2277 5.98247 28.5083 3.97972ZM6.4165 14.6666C4.90007 14.6666 3.6665 15.9002 3.6665 17.4166V28.4166C3.6665 29.9331 4.90007 31.1666 6.4165 31.1666C7.93294 31.1666 9.1665 29.9331 9.1665 28.4166V17.4166C9.1665 15.9002 7.93294 14.6666 6.4165 14.6666Z" fill="url(#paint0_linear_754_1188)"/>
<defs>
<linearGradient id="paint0_linear_754_1188" x1="5.16137" y1="13.6015" x2="39.9592" y2="29.828" gradientUnits="userSpaceOnUse">
<stop stop-color="white" stop-opacity="0.2"/>
<stop offset="1" stop-color="white" stop-opacity="0"/>
</linearGradient>
</defs>
</svg>
