<svg width="44" height="44" viewBox="0 0 44 44" fill="none" xmlns="http://www.w3.org/2000/svg">
<g clip-path="url(#clip0_754_1179)">
<path d="M33.0056 22.9167C33.0056 18.9723 35.2761 15.5661 38.5767 13.9091C35.6303 11.1496 31.8445 11 31.1719 11C29.3839 11 28.108 11.4843 26.8751 11.9525C25.6807 12.4063 24.5525 12.8342 22.9203 12.8342C21.288 12.8342 20.1599 12.4063 18.9655 11.9525C17.7326 11.4843 16.4567 11 14.6687 11C13.5423 11 3.6665 11.3599 3.6665 23.8342C3.6665 34.0348 10.6279 44 14.6687 44C17.1425 44 18.5653 43.4217 19.8214 42.9115C20.8028 42.5131 21.6516 42.1685 22.9203 42.1685C24.189 42.1685 25.0378 42.5131 26.0191 42.9124C27.2753 43.4217 28.698 44 31.171 44C34.0019 44 38.0331 39.1031 40.3332 32.6668C35.9912 31.542 33.0056 27.6094 33.0056 22.9167Z" fill="#595959"/>
<path d="M22.004 11C27.375 9.9 31.2249 5.47271 31.1713 0C25.8003 1.1 21.9504 5.52729 22.004 11Z" fill="#595959"/>
<path opacity="0.1" d="M14.6687 11.4583C16.4567 11.4583 17.7326 11.9426 18.9655 12.4108C20.1599 12.8647 21.288 13.2926 22.9203 13.2926C24.5525 13.2926 25.6807 12.8647 26.8751 12.4108C28.108 11.9426 29.3839 11.4583 31.1719 11.4583C31.8202 11.4583 35.3551 11.6213 38.2488 14.1028C38.3603 14.0415 38.4628 13.9663 38.5767 13.9091C35.6303 11.1496 31.8445 11 31.1719 11C29.3839 11 28.108 11.4843 26.8751 11.9525C25.6807 12.4063 24.5525 12.8342 22.9203 12.8342C21.288 12.8342 20.1599 12.4063 18.9655 11.9525C17.7326 11.4843 16.4567 11 14.6687 11C13.5423 11 3.6665 11.3599 3.6665 23.8342C3.6665 23.9184 3.67602 24.0019 3.67691 24.0859C3.79152 11.8258 13.5489 11.4583 14.6687 11.4583Z" fill="white"/>
<path opacity="0.2" d="M31.171 43.5417C28.698 43.5417 27.2753 42.9634 26.0191 42.454C25.0378 42.0548 24.189 41.7101 22.9203 41.7101C21.6516 41.7101 20.8028 42.0548 19.8214 42.4531C18.5653 42.9634 17.1425 43.5417 14.6687 43.5417C10.6613 43.5417 3.79018 33.7394 3.67691 23.6276C3.67624 23.7 3.6665 23.7609 3.6665 23.8342C3.6665 34.0348 10.6279 44 14.6687 44C17.1425 44 18.5653 43.4217 19.8214 42.9115C20.8028 42.5131 21.6516 42.1685 22.9203 42.1685C24.189 42.1685 25.0378 42.5131 26.0191 42.9124C27.2753 43.4217 28.698 44 31.171 44C34.0019 44 38.0331 39.1031 40.3332 32.6668C40.2799 32.653 40.2318 32.6275 40.1788 32.6128C37.8478 38.8466 33.9417 43.5417 31.171 43.5417Z" fill="black"/>
<path opacity="0.2" d="M31.1289 0.810667C30.7505 5.81776 27.0391 9.48957 22.0095 10.5359C22.0045 10.6946 22.0024 10.8394 22.0039 11C27.2145 9.93282 30.9938 5.72446 31.166 0.477905C31.1501 0.563627 31.1561 0.708078 31.1289 0.810667Z" fill="black"/>
<path opacity="0.1" d="M22.0098 10.5127C22.0311 10.3932 22.0576 10.0609 22.0839 9.85989C22.1029 9.60738 22.1304 9.35914 22.1659 9.11525C22.836 4.5215 26.3888 1.47173 31.1663 0.477916C31.1713 0.319244 31.1731 0.160573 31.1715 0C25.9593 1.06739 22.1798 5.26374 22.0098 10.5127Z" fill="white"/>
<path d="M33.0056 22.9167C33.0056 18.9723 35.2761 15.5661 38.5767 13.9091C35.6303 11.1496 31.8445 11 31.1719 11C29.3839 11 28.108 11.4843 26.8751 11.9525C25.6807 12.4063 24.5525 12.8342 22.9203 12.8342C21.288 12.8342 20.1599 12.4063 18.9655 11.9525C17.7326 11.4843 16.4567 11 14.6687 11C13.5423 11 3.6665 11.3599 3.6665 23.8342C3.6665 34.0348 10.6279 44 14.6687 44C17.1425 44 18.5653 43.4217 19.8214 42.9115C20.8028 42.5131 21.6516 42.1685 22.9203 42.1685C24.189 42.1685 25.0378 42.5131 26.0191 42.9124C27.2753 43.4217 28.698 44 31.171 44C34.0019 44 38.0331 39.1031 40.3332 32.6668C35.9912 31.542 33.0056 27.6094 33.0056 22.9167ZM31.1713 0C25.8003 1.09996 21.9504 5.5273 22.004 11C27.375 9.89993 31.2249 5.4727 31.1713 0Z" fill="url(#paint0_linear_754_1179)"/>
</g>
<defs>
<linearGradient id="paint0_linear_754_1179" x1="6.23311" y1="14.3771" x2="41.3753" y2="30.7641" gradientUnits="userSpaceOnUse">
<stop stop-color="white" stop-opacity="0.2"/>
<stop offset="1" stop-color="white" stop-opacity="0"/>
</linearGradient>
<clipPath id="clip0_754_1179">
<rect width="44" height="44" fill="white"/>
</clipPath>
</defs>
</svg>
