<svg width="37" height="37" viewBox="0 0 37 37" fill="none" xmlns="http://www.w3.org/2000/svg">
<g clip-path="url(#clip0_180_281)">
<path d="M18.4969 33.5321C18.3447 33.533 18.1939 33.5038 18.053 33.4462C17.9122 33.3887 17.784 33.3039 17.676 33.1968L7.26973 22.7905C7.052 22.5728 6.92969 22.2775 6.92969 21.9696C6.92969 21.6617 7.052 21.3664 7.26973 21.1486C7.48746 20.9309 7.78276 20.8086 8.09067 20.8086C8.39858 20.8086 8.69388 20.9309 8.91161 21.1486L18.4969 30.7455L28.0822 21.1486C28.19 21.0408 28.318 20.9553 28.4589 20.897C28.5997 20.8386 28.7507 20.8086 28.9032 20.8086C29.0556 20.8086 29.2066 20.8386 29.3475 20.897C29.4883 20.9553 29.6163 21.0408 29.7241 21.1486C29.8319 21.2564 29.9174 21.3844 29.9758 21.5253C30.0341 21.6661 30.0642 21.8171 30.0642 21.9696C30.0642 22.122 30.0341 22.273 29.9758 22.4139C29.9174 22.5547 29.8319 22.6827 29.7241 22.7905L19.3179 33.1968C19.2098 33.3039 19.0817 33.3887 18.9408 33.4462C18.7999 33.5038 18.6491 33.533 18.4969 33.5321Z" fill="white"/>
<path d="M18.5 33.5312C18.1933 33.5312 17.8992 33.4094 17.6824 33.1926C17.4656 32.9758 17.3438 32.6817 17.3438 32.375L17.3438 4.625C17.3438 4.31834 17.4656 4.02425 17.6824 3.80741C17.8992 3.59057 18.1933 3.46875 18.5 3.46875C18.8067 3.46875 19.1008 3.59057 19.3176 3.80741C19.5344 4.02425 19.6562 4.31834 19.6562 4.625L19.6563 32.375C19.6563 32.6817 19.5344 32.9758 19.3176 33.1926C19.1008 33.4094 18.8067 33.5312 18.5 33.5312Z" fill="white"/>
</g>
<defs>
<clipPath id="clip0_180_281">
<rect width="37" height="37" fill="white"/>
</clipPath>
</defs>
</svg>
