<svg viewBox="0 0 91 91" xml:space="preserve" xmlns="http://www.w3.org/2000/svg"><path d="M2.669 18.273a2.513 2.513 0 0 0 2.513-2.513V5.488h10.271a2.513 2.513 0 1 0 0-5.026H2.669A2.513 2.513 0 0 0 .156 2.975V15.76a2.513 2.513 0 0 0 2.513 2.513zM88.163.462H75.38a2.513 2.513 0 1 0 0 5.026h10.27V15.76a2.513 2.513 0 0 0 5.026 0V2.975A2.514 2.514 0 0 0 88.163.462zM15.452 85.818H5.182V75.547a2.513 2.513 0 1 0-5.026 0v12.784a2.513 2.513 0 0 0 2.513 2.513h12.783a2.513 2.513 0 1 0 0-5.026zM88.163 73.034a2.513 2.513 0 0 0-2.514 2.513v10.271H75.38a2.513 2.513 0 1 0 0 5.026h12.783a2.513 2.513 0 0 0 2.512-2.513V75.547a2.513 2.513 0 0 0-2.512-2.513zM64.739 27.448a2.512 2.512 0 0 0-3.549.163l-21.336 23.39-5.68-6.096a2.513 2.513 0 0 0-3.676 3.426l7.537 8.09c.475.51 1.141.8 1.838.8h.014a2.518 2.518 0 0 0 1.843-.819l23.173-25.404a2.513 2.513 0 0 0-.164-3.55z" fill="#f68d2f" class="fill-000000"></path><path d="M67.331 85.843c-1.951-.275-3.305-1.038-4.139-2.331-1.803-2.799-.963-7.625-.486-9.252l.004-.014c4.549-4.255 8.139-9.403 10.385-15.005 3.082-7.684 4.588-16 4.604-25.457-.004-.298.002-.596.006-.894.01-.539.018-1.078-.01-1.619-.254-5.314-1.891-10.433-4.863-15.213A33.595 33.595 0 0 0 61.707 5.034C57.037 2.186 51.965.654 46.631.48c-5.207-.166-10.223.944-14.902 3.31-5.979 3.028-10.699 7.551-14.03 13.444-2.625 4.655-4.011 9.542-4.118 14.523a82.271 82.271 0 0 0 .456 10.552c.649 6.027 1.818 11.305 3.574 16.135 2.521 6.927 7.02 12.341 10.978 16.081.292 1.172 1.34 6.027-.551 8.975-.833 1.3-2.189 2.066-4.145 2.342a2.514 2.514 0 0 0 .702 4.977c3.395-.479 6.048-2.072 7.672-4.605 1.406-2.192 1.858-4.749 1.898-7.045 2.379 1.704 4.821 2.938 8.167 3.484 1.11.182 2.146.271 3.166.271 4.43 0 7.832-1.789 10.848-3.723.24-.153.473-.314.707-.473-.012 2.404.408 5.151 1.904 7.485 1.625 2.533 4.277 4.126 7.672 4.605a2.512 2.512 0 1 0 .702-4.975zM53.634 74.971c-4.283 2.745-6.717 3.342-10.491 2.724-3.719-.607-5.877-2.303-9.093-5.019-3.895-3.286-9.088-8.721-11.719-15.948-1.615-4.443-2.695-9.336-3.3-14.956a77.143 77.143 0 0 1-.428-9.906c.09-4.144 1.258-8.236 3.471-12.16 2.833-5.013 6.844-8.859 11.922-11.431 3.655-1.849 7.557-2.786 11.594-2.786.291 0 .582.005.875.015 4.457.145 8.703 1.43 12.623 3.821a28.597 28.597 0 0 1 9.475 9.389c2.516 4.043 3.9 8.349 4.111 12.798.021.434.014.865.006 1.296-.006.345-.012.69-.008 1.002-.014 8.772-1.402 16.48-4.242 23.562-2.824 7.043-8.079 13.294-14.796 17.599z" fill="#f68d2f" class="fill-000000"></path></svg>