<svg width="58" height="58" viewBox="0 0 58 58" fill="none" xmlns="http://www.w3.org/2000/svg">
<g filter="url(#filter0_d_708_1131)">
<circle cx="29" cy="25" r="20" fill="#F68D2E"/>
</g>
<g filter="url(#filter1_d_708_1131)">
<circle cx="29" cy="25" r="25" fill="#F68D2E" fill-opacity="0.28" shape-rendering="crispEdges"/>
</g>
<path d="M38 21.1429V16H20V21.1429H21.2857V22.4286H20V27.5714H21.2857V28.8571H20V34H38V28.8571H36.7143V27.5714H38V22.4286H36.7143V21.1429H38ZM21.2857 18.5714H23.8571V19.8571H21.2857V18.5714ZM21.2857 25H23.8571V26.2857H21.2857V25ZM23.8571 32.7143H21.2857V31.4286H23.8571V32.7143ZM35.4286 28.8571H22.5714V27.5714H35.4286V28.8571ZM35.4286 22.4286H22.5714V21.1429H35.4286V22.4286Z" fill="black"/>
<defs>
<filter id="filter0_d_708_1131" x="5" y="5" width="48" height="48" filterUnits="userSpaceOnUse" color-interpolation-filters="sRGB">
<feFlood flood-opacity="0" result="BackgroundImageFix"/>
<feColorMatrix in="SourceAlpha" type="matrix" values="0 0 0 0 0 0 0 0 0 0 0 0 0 0 0 0 0 0 127 0" result="hardAlpha"/>
<feOffset dy="4"/>
<feGaussianBlur stdDeviation="2"/>
<feComposite in2="hardAlpha" operator="out"/>
<feColorMatrix type="matrix" values="0 0 0 0 0 0 0 0 0 0 0 0 0 0 0 0 0 0 0.25 0"/>
<feBlend mode="normal" in2="BackgroundImageFix" result="effect1_dropShadow_708_1131"/>
<feBlend mode="normal" in="SourceGraphic" in2="effect1_dropShadow_708_1131" result="shape"/>
</filter>
<filter id="filter1_d_708_1131" x="0" y="0" width="58" height="58" filterUnits="userSpaceOnUse" color-interpolation-filters="sRGB">
<feFlood flood-opacity="0" result="BackgroundImageFix"/>
<feColorMatrix in="SourceAlpha" type="matrix" values="0 0 0 0 0 0 0 0 0 0 0 0 0 0 0 0 0 0 127 0" result="hardAlpha"/>
<feOffset dy="4"/>
<feGaussianBlur stdDeviation="2"/>
<feComposite in2="hardAlpha" operator="out"/>
<feColorMatrix type="matrix" values="0 0 0 0 0 0 0 0 0 0 0 0 0 0 0 0 0 0 0.25 0"/>
<feBlend mode="normal" in2="BackgroundImageFix" result="effect1_dropShadow_708_1131"/>
<feBlend mode="normal" in="SourceGraphic" in2="effect1_dropShadow_708_1131" result="shape"/>
</filter>
</defs>
</svg>
