<svg viewBox="0 0 64 64" xml:space="preserve" xmlns="http://www.w3.org/2000/svg"><path d="M61 45h-3V21a2 2 0 0 0-2-2H45V9a2 2 0 0 0-2-2H21a2 2 0 0 0-2 2v6H9a2 2 0 0 0-2 2v28H3a2 2 0 0 0-2 2v8a2 2 0 0 0 2 2h58a2 2 0 0 0 2-2v-8a2 2 0 0 0-2-2zM11 19h8v18a2 2 0 0 0 4 0V11h18v16a2 2 0 0 0 4 0v-4h9v22h-9V34a2 2 0 0 0-4 0v11H23v-1a2 2 0 0 0-4 0v1h-8V19zm48 34H5v-4h54v4z" fill="#f68d2f" class="fill-000000"></path><path d="M29 28a2 2 0 0 0 0 4h6a2 2 0 0 0 0-4h-1V18a2 2 0 0 0-3.2-1.6l-3 2.25a2 2 0 0 0 2.2 3.332V28h-1z" fill="#f68d2f" class="fill-000000"></path></svg>