<svg viewBox="0 0 191 295" xmlns="http://www.w3.org/2000/svg"><g fill-rule="nonzero" fill="none"><path d="M147.922 210.005c-23.39 0-42.418 19.029-42.418 42.418s19.028 42.419 42.418 42.419 42.419-19.029 42.419-42.419c0-23.39-19.029-42.418-42.419-42.418Zm0 72.838c-16.772 0-30.418-13.646-30.418-30.419s13.646-30.418 30.418-30.418c16.773 0 30.419 13.646 30.419 30.418s-13.645 30.419-30.419 30.419ZM77.567 109.567a5.982 5.982 0 0 0 4.242-1.757l35.781-35.78c7.708 7.894 18.454 12.808 30.333 12.808 23.39 0 42.419-19.029 42.419-42.418S171.312 0 147.922 0s-42.418 19.029-42.418 42.419a42.14 42.14 0 0 0 4.923 19.804L73.325 99.324a5.999 5.999 0 0 0 4.242 10.243ZM147.922 12c16.773 0 30.419 13.646 30.419 30.419s-13.646 30.418-30.419 30.418c-16.772 0-30.418-13.646-30.418-30.418S131.15 12 147.922 12Z" fill="#f68d2f" class="fill-000000"></path><path d="m105.908 214.935-35.364-35.363c9.048-7.785 14.794-19.306 14.794-32.151 0-23.39-19.028-42.419-42.418-42.419S.501 124.031.501 147.421c0 23.39 19.03 42.419 42.419 42.419a42.141 42.141 0 0 0 17.244-3.678l37.259 37.258a5.982 5.982 0 0 0 4.242 1.757 5.999 5.999 0 0 0 4.243-10.242Zm-93.407-67.514c0-16.773 13.646-30.419 30.419-30.419 16.772 0 30.418 13.646 30.418 30.419S59.693 177.84 42.92 177.84s-30.419-13.646-30.419-30.419Z" fill="#ffd074" class="fill-fb4a5e"></path></g></svg>