<svg width="313" height="83" viewBox="0 0 313 83" fill="none" xmlns="http://www.w3.org/2000/svg">
<rect x="4" y="4" width="305" height="75" rx="25" fill="#F68D2E"/>
<rect x="0.5" y="0.5" width="312" height="82" rx="27.5" stroke="#F68D2E"/>
<path d="M75.6125 45.2655V48H74.9434C74.1773 48 73.4355 47.8545 72.718 47.5636C72.0004 47.2727 71.3798 46.8412 70.8561 46.2691C70.4101 46.7152 69.8477 47.0594 69.1689 47.3018C68.6646 47.4861 68.078 47.6267 67.4089 47.7236C66.7398 47.8206 65.9689 47.8933 65.0961 47.9418C64.2331 47.9806 63.2537 48.0048 62.158 48.0145C61.0622 48.0242 59.8355 48.0291 58.478 48.0291C57.4889 48.0291 56.5483 48.0242 55.6561 48.0145C54.764 48.0145 53.9252 47.9952 53.1398 47.9564C52.3543 47.9176 51.6222 47.8594 50.9434 47.7818C50.2646 47.6945 49.6343 47.5733 49.0525 47.4182C47.6658 47.04 46.6234 46.4436 45.9252 45.6291C45.1301 44.737 44.7325 43.5539 44.7325 42.08C44.7325 41.5855 44.7664 41.0909 44.8343 40.5964C44.9119 40.0921 44.9943 39.6364 45.0816 39.2291C45.1689 38.8121 45.2464 38.4727 45.3143 38.2109C45.3919 37.9394 45.4355 37.7939 45.4452 37.7745L48.0634 38.5745C48.0634 38.5745 48.0295 38.6861 47.9616 38.9091C47.9034 39.1321 47.8355 39.4133 47.758 39.7527C47.6901 40.0921 47.6222 40.4703 47.5543 40.8873C47.4961 41.2945 47.467 41.6921 47.467 42.08C47.467 42.4679 47.5058 42.8073 47.5834 43.0982C47.6707 43.3794 47.8016 43.6267 47.9761 43.84C48.1604 44.0436 48.398 44.223 48.6889 44.3782C48.9798 44.5236 49.3386 44.6545 49.7652 44.7709C50.7543 45.0327 51.981 45.1879 53.4452 45.2364C54.9095 45.2752 56.587 45.2945 58.478 45.2945C60.0489 45.2945 61.4113 45.2897 62.5652 45.28C63.7289 45.2703 64.718 45.2364 65.5325 45.1782C66.347 45.1103 67.0113 45.0133 67.5252 44.8873C68.0489 44.7612 68.4561 44.5818 68.747 44.3491C69.038 44.1164 69.2367 43.8206 69.3434 43.4618C69.4501 43.103 69.5034 42.6667 69.5034 42.1527V38.1673H72.2525V42.6909C72.2525 43.137 72.3301 43.5248 72.4852 43.8545C72.6501 44.1745 72.8586 44.4412 73.1107 44.6545C73.3628 44.8582 73.6489 45.0133 73.9689 45.12C74.2986 45.217 74.6234 45.2655 74.9434 45.2655H75.6125ZM61.0961 36.8582L58.798 34.5309L61.067 32.1745L63.4234 34.5309L61.0961 36.8582ZM55.5252 36.8291L53.227 34.5018L55.4961 32.1455L57.8525 34.5018L55.5252 36.8291ZM85.2557 36.16C85.2751 36.2182 85.3139 36.3733 85.372 36.6255C85.4302 36.8776 85.4933 37.1927 85.5611 37.5709C85.6387 37.9394 85.7211 38.3515 85.8084 38.8073C85.8957 39.2533 85.9733 39.7091 86.0411 40.1745C86.109 40.6303 86.1672 41.0715 86.2157 41.4982C86.2642 41.9248 86.2884 42.2982 86.2884 42.6182C86.2884 43.5491 86.1333 44.3539 85.823 45.0327C85.5223 45.7018 85.1248 46.2594 84.6302 46.7055C84.1454 47.1418 83.5975 47.4667 82.9866 47.68C82.3757 47.8933 81.7599 48 81.1393 48H75.1175V45.2509H81.1393C81.2848 45.2509 81.4884 45.2315 81.7502 45.1927C82.0217 45.1442 82.2884 45.0327 82.5502 44.8582C82.8217 44.6836 83.0545 44.4218 83.2484 44.0727C83.452 43.7236 83.5539 43.2388 83.5539 42.6182C83.5539 42.4048 83.5345 42.1382 83.4957 41.8182C83.4666 41.4885 83.423 41.1394 83.3648 40.7709C83.3163 40.3927 83.2581 40.0097 83.1902 39.6218C83.1223 39.2242 83.0545 38.8509 82.9866 38.5018C82.9187 38.1527 82.8557 37.8424 82.7975 37.5709C82.7393 37.2994 82.6908 37.0958 82.652 36.96L85.2557 36.16ZM86.332 53.5418L83.9757 55.8982L81.7066 53.5418L84.0048 51.2145L86.332 53.5418ZM80.7611 53.5709L78.4048 55.9273L76.1357 53.5709L78.4339 51.2436L80.7611 53.5709ZM91.6656 53.28C93.1298 53.28 94.3613 53.1685 95.3601 52.9455C96.3589 52.7224 97.1492 52.3782 97.731 51.9127C98.2353 51.5055 98.6038 50.9867 98.8365 50.3564C99.0789 49.7261 99.2001 48.9406 99.2001 48H96.5237C95.845 48 95.1565 47.8982 94.4583 47.6945C93.7601 47.4909 93.125 47.1564 92.5528 46.6909C91.9904 46.2255 91.5298 45.6194 91.171 44.8727C90.8122 44.1164 90.6328 43.1952 90.6328 42.1091C90.6328 41.4691 90.6862 40.8921 90.7928 40.3782C90.9092 39.8545 91.0498 39.3891 91.2147 38.9818C91.3892 38.5745 91.5783 38.2206 91.7819 37.92C91.9856 37.6194 92.1844 37.3624 92.3783 37.1491C92.9116 36.6158 93.5225 36.2036 94.211 35.9127C94.8995 35.6218 95.6365 35.4764 96.4219 35.4764C97.1104 35.4764 97.7553 35.583 98.3565 35.7964C98.9577 36.0097 99.4959 36.3297 99.971 36.7564C101.28 37.9782 101.935 39.8933 101.935 42.5018V45.2509H104.116V48H101.935C101.935 49.377 101.731 50.56 101.324 51.5491C100.926 52.5479 100.306 53.3818 99.4619 54.0509C98.6086 54.72 97.5468 55.2145 96.2765 55.5345C95.0159 55.8642 93.4789 56.0291 91.6656 56.0291V53.28ZM96.4219 38.2255C95.4619 38.2255 94.7153 38.5648 94.1819 39.2436C93.6486 39.9224 93.3819 40.8776 93.3819 42.1091C93.3819 43.36 93.7601 44.2279 94.5165 44.7127C94.7007 44.8291 94.8898 44.9261 95.0838 45.0036C95.2777 45.0715 95.4668 45.1248 95.651 45.1636C95.8353 45.1927 96.0001 45.217 96.1456 45.2364C96.3007 45.2461 96.4268 45.2509 96.5237 45.2509H99.2001V42.5018C99.2001 41.7939 99.1468 41.1976 99.0401 40.7127C98.9334 40.2182 98.7977 39.8109 98.6328 39.4909C98.468 39.1709 98.2789 38.9285 98.0656 38.7636C97.8619 38.5891 97.6583 38.463 97.4547 38.3855C97.251 38.3079 97.0571 38.2642 96.8728 38.2545C96.6886 38.2352 96.5383 38.2255 96.4219 38.2255ZM103.871 48V45.2509H106.242C106.921 45.2509 107.464 45.183 107.871 45.0473C108.279 44.9115 108.589 44.7418 108.802 44.5382C109.015 44.3248 109.156 44.0921 109.224 43.84C109.292 43.5879 109.326 43.3406 109.326 43.0982V38.1673H112.06V42.9818C112.06 43.5248 112.172 43.9467 112.395 44.2473C112.628 44.5479 112.889 44.7709 113.18 44.9164C113.297 44.7321 113.408 44.5479 113.515 44.3636C113.631 44.1697 113.748 43.9758 113.864 43.7818C114.242 43.1612 114.635 42.5309 115.042 41.8909C115.459 41.2412 115.895 40.6109 116.351 40C116.807 39.3794 117.282 38.7976 117.777 38.2545C118.281 37.7115 118.814 37.2412 119.377 36.8436C119.939 36.4364 120.535 36.1164 121.166 35.8836C121.796 35.6412 122.465 35.52 123.173 35.52C123.881 35.52 124.574 35.6509 125.253 35.9127C125.942 36.1648 126.552 36.5624 127.086 37.1055C127.619 37.6388 128.046 38.3224 128.366 39.1564C128.695 39.9903 128.86 40.9842 128.86 42.1382C128.86 42.7782 128.792 43.3552 128.657 43.8691C128.531 44.383 128.356 44.8436 128.133 45.2509H131.129V48H114.679C113.98 48 113.321 47.8982 112.7 47.6945C112.08 47.4812 111.532 47.1806 111.057 46.7927C110.94 46.7055 110.829 46.6085 110.722 46.5018C110.218 46.9964 109.602 47.3648 108.875 47.6073C108.157 47.8497 107.314 47.9806 106.344 48H103.871ZM123.159 45.2509C123.382 45.2412 123.663 45.2024 124.002 45.1345C124.351 45.0667 124.686 44.9309 125.006 44.7273C125.374 44.4752 125.655 44.1406 125.849 43.7236C126.053 43.297 126.155 42.7685 126.155 42.1382C126.155 40.897 125.888 39.9418 125.355 39.2727C124.822 38.5939 124.094 38.2545 123.173 38.2545C122.717 38.2545 122.276 38.3564 121.849 38.56C121.423 38.7539 121.001 39.0206 120.584 39.36C120.177 39.6994 119.779 40.097 119.391 40.5527C119.003 41.0085 118.625 41.4933 118.257 42.0073C117.898 42.5212 117.544 43.0545 117.195 43.6073C116.855 44.1503 116.526 44.6788 116.206 45.1927C116.186 45.2315 116.177 45.2509 116.177 45.2509H123.159ZM120.642 29.92L123.115 27.4182L125.646 29.9491L123.144 32.4509L120.642 29.92ZM130.84 48V45.2509H135.669C135.31 44.8824 135.019 44.5091 134.796 44.1309C134.583 43.7527 134.418 43.3891 134.302 43.04C134.185 42.6909 134.108 42.3661 134.069 42.0655C134.03 41.7552 134.011 41.4836 134.011 41.2509C134.011 40.4558 134.171 39.7091 134.491 39.0109C134.811 38.303 135.238 37.6921 135.771 37.1782C136.314 36.6642 136.939 36.257 137.647 35.9564C138.365 35.6558 139.116 35.5055 139.902 35.5055C140.358 35.5055 140.794 35.5588 141.211 35.6655C141.628 35.7624 142.05 35.9079 142.476 36.1018C142.903 36.2861 143.349 36.5188 143.815 36.8C144.29 37.0715 144.813 37.377 145.385 37.7164L144.018 40.0727C143.679 39.8691 143.33 39.6606 142.971 39.4473C142.622 39.2242 142.268 39.0255 141.909 38.8509C141.56 38.6764 141.211 38.5358 140.862 38.4291C140.522 38.3127 140.202 38.2545 139.902 38.2545C139.524 38.2545 139.145 38.3224 138.767 38.4582C138.399 38.5939 138.059 38.7927 137.749 39.0545C137.448 39.3067 137.201 39.6218 137.007 40C136.823 40.3685 136.731 40.7855 136.731 41.2509C136.731 41.7745 136.833 42.24 137.036 42.6473C137.25 43.0448 137.536 43.3939 137.895 43.6945C138.253 43.9855 138.67 44.2327 139.145 44.4364C139.63 44.6303 140.144 44.7903 140.687 44.9164C141.24 45.0327 141.802 45.12 142.375 45.1782C142.956 45.2267 143.528 45.2509 144.091 45.2509H145.924V48H130.84ZM161.12 53.28C162.584 53.28 163.816 53.1685 164.814 52.9455C165.813 52.7224 166.603 52.3782 167.185 51.9127C167.689 51.5055 168.058 50.9867 168.291 50.3564C168.533 49.7261 168.654 48.9406 168.654 48H165.978C165.299 48 164.611 47.8982 163.912 47.6945C163.214 47.4909 162.579 47.1564 162.007 46.6909C161.445 46.2255 160.984 45.6194 160.625 44.8727C160.266 44.1164 160.087 43.1952 160.087 42.1091C160.087 41.4691 160.14 40.8921 160.247 40.3782C160.363 39.8545 160.504 39.3891 160.669 38.9818C160.843 38.5745 161.033 38.2206 161.236 37.92C161.44 37.6194 161.639 37.3624 161.832 37.1491C162.366 36.6158 162.977 36.2036 163.665 35.9127C164.354 35.6218 165.091 35.4764 165.876 35.4764C166.565 35.4764 167.209 35.583 167.811 35.7964C168.412 36.0097 168.95 36.3297 169.425 36.7564C170.734 37.9782 171.389 39.8933 171.389 42.5018V45.2509V48C171.389 49.377 171.185 50.56 170.778 51.5491C170.38 52.5479 169.76 53.3818 168.916 54.0509C168.063 54.72 167.001 55.2145 165.731 55.5345C164.47 55.8642 162.933 56.0291 161.12 56.0291V53.28ZM165.876 38.2255C164.916 38.2255 164.169 38.5648 163.636 39.2436C163.103 39.9224 162.836 40.8776 162.836 42.1091C162.836 43.36 163.214 44.2279 163.971 44.7127C164.155 44.8291 164.344 44.9261 164.538 45.0036C164.732 45.0715 164.921 45.1248 165.105 45.1636C165.289 45.1927 165.454 45.217 165.6 45.2364C165.755 45.2461 165.881 45.2509 165.978 45.2509H168.654V42.5018C168.654 41.7939 168.601 41.1976 168.494 40.7127C168.388 40.2182 168.252 39.8109 168.087 39.4909C167.922 39.1709 167.733 38.9285 167.52 38.7636C167.316 38.5891 167.113 38.463 166.909 38.3855C166.705 38.3079 166.511 38.2642 166.327 38.2545C166.143 38.2352 165.993 38.2255 165.876 38.2255ZM205.38 48C205.787 48.7952 206.006 49.5467 206.035 50.2545C206.073 50.9624 205.962 51.6121 205.7 52.2036C205.438 52.7952 205.041 53.3285 204.507 53.8036C203.974 54.2788 203.344 54.6764 202.616 54.9964C201.889 55.3261 201.08 55.5782 200.187 55.7527C199.295 55.937 198.355 56.0291 197.366 56.0291H193.22C191.688 56.0291 190.311 55.6945 189.089 55.0255C187.867 54.3564 186.869 53.4303 186.093 52.2473C185.569 51.4133 185.191 50.4873 184.958 49.4691C184.735 48.4606 184.658 47.3842 184.726 46.24C184.793 45.0861 185.007 43.8739 185.366 42.6036C185.734 41.3333 186.248 40.0194 186.907 38.6618L189.351 39.8545C188.265 42.143 187.644 44.2182 187.489 46.08C187.344 47.9321 187.664 49.4933 188.449 50.7636C188.944 51.5685 189.603 52.1842 190.427 52.6109C191.261 53.0376 192.192 53.2509 193.22 53.2509H197.366C197.909 53.2509 198.442 53.2073 198.966 53.12C199.489 53.0424 199.979 52.9309 200.435 52.7855C200.89 52.64 201.303 52.4655 201.671 52.2618C202.04 52.0679 202.345 51.8497 202.587 51.6073C202.84 51.3648 203.014 51.103 203.111 50.8218C203.208 50.5503 203.213 50.2691 203.126 49.9782C203.009 49.6 202.738 49.28 202.311 49.0182C201.884 48.7661 201.37 48.5624 200.769 48.4073C200.168 48.2618 199.518 48.1552 198.82 48.0873C198.122 48.0291 197.448 48 196.798 48L196.9 45.2509H209.438V48H205.38ZM220.273 47.9709C219.362 47.9709 218.552 47.84 217.844 47.5782C217.136 47.3067 216.54 46.9188 216.055 46.4145C215.551 46.9576 214.964 47.36 214.295 47.6218C213.626 47.8739 212.952 48 212.273 48H209.073V45.2509H212.273C212.419 45.2509 212.627 45.2315 212.899 45.1927C213.17 45.1442 213.437 45.0327 213.699 44.8582C213.961 44.6739 214.188 44.4024 214.382 44.0436C214.586 43.6848 214.688 43.1952 214.688 42.5745V42.5164V38.1673H217.437V42.5164C217.437 43.457 217.655 44.1455 218.091 44.5818C218.538 45.0182 219.265 45.2364 220.273 45.2364C220.419 45.2364 220.622 45.2121 220.884 45.1636C221.156 45.1055 221.422 44.9842 221.684 44.8C221.956 44.6158 222.188 44.3442 222.382 43.9855C222.586 43.6267 222.688 43.137 222.688 42.5164V38.1673H225.422V42.5164C225.422 43.457 225.65 44.1503 226.106 44.5964C226.562 45.0424 227.294 45.2655 228.302 45.2655C228.458 45.2655 228.666 45.2364 228.928 45.1782C229.19 45.1103 229.447 44.9794 229.699 44.7855C229.961 44.5915 230.184 44.3152 230.368 43.9564C230.552 43.5976 230.644 43.1176 230.644 42.5164C230.644 42.303 230.625 42.0364 230.586 41.7164C230.557 41.3964 230.513 41.0521 230.455 40.6836C230.407 40.3152 230.348 39.9418 230.281 39.5636C230.213 39.1758 230.145 38.817 230.077 38.4873C230.009 38.1479 229.946 37.8473 229.888 37.5855C229.83 37.3139 229.781 37.1152 229.742 36.9891L232.346 36.16C232.365 36.2182 232.404 36.3733 232.462 36.6255C232.521 36.8679 232.588 37.1733 232.666 37.5418C232.744 37.9006 232.821 38.303 232.899 38.7491C232.986 39.1952 233.064 39.6461 233.131 40.1018C233.209 40.5479 233.272 40.9842 233.321 41.4109C233.369 41.8279 233.393 42.1964 233.393 42.5164C233.393 43.4376 233.243 44.2424 232.942 44.9309C232.642 45.6097 232.249 46.177 231.764 46.6327C231.289 47.0788 230.746 47.4182 230.135 47.6509C229.524 47.8739 228.913 47.9903 228.302 48C227.371 48 226.547 47.8642 225.83 47.5927C225.122 47.3115 224.521 46.9091 224.026 46.3855C223.522 46.9188 222.935 47.3164 222.266 47.5782C221.607 47.84 220.942 47.9709 220.273 47.9709ZM232.316 56.0727V53.3236H234.323C235.322 53.3236 236.185 53.2024 236.912 52.96C237.649 52.7273 238.255 52.3636 238.73 51.8691C239.215 51.3745 239.569 50.7442 239.792 49.9782C240.025 49.2121 240.141 48.3006 240.141 47.2436V38.1673H242.89V47.2436C242.89 48.6303 242.706 49.8667 242.338 50.9527C241.979 52.0485 241.441 52.9745 240.723 53.7309C240.006 54.4873 239.109 55.0642 238.032 55.4618C236.966 55.8691 235.729 56.0727 234.323 56.0727H232.316ZM258.247 48H257.621C256.69 48 255.832 47.8158 255.047 47.4473C255.047 48.8048 254.858 50.017 254.479 51.0836C254.101 52.1503 253.549 53.0521 252.821 53.7891C252.094 54.5358 251.197 55.103 250.13 55.4909C249.073 55.8788 247.856 56.0727 246.479 56.0727H244.472V53.3236H246.479C247.478 53.3236 248.341 53.2024 249.069 52.96C249.805 52.7273 250.412 52.3636 250.887 51.8691C251.372 51.3745 251.725 50.7442 251.949 49.9782C252.181 49.2121 252.298 48.3006 252.298 47.2436V38.1673H255.047V42.9818C255.047 43.5248 255.158 43.9515 255.381 44.2618C255.614 44.5624 255.881 44.7855 256.181 44.9309C256.482 45.0764 256.768 45.1685 257.039 45.2073C257.321 45.2364 257.515 45.2509 257.621 45.2509H258.247V48ZM265.42 36.16C265.439 36.2182 265.478 36.3733 265.536 36.6255C265.594 36.8776 265.657 37.1927 265.725 37.5709C265.803 37.9394 265.885 38.3515 265.972 38.8073C266.06 39.2533 266.137 39.7091 266.205 40.1745C266.273 40.6303 266.331 41.0715 266.38 41.4982C266.428 41.9248 266.453 42.2982 266.453 42.6182C266.453 43.5491 266.297 44.3539 265.987 45.0327C265.686 45.7018 265.289 46.2594 264.794 46.7055C264.309 47.1418 263.762 47.4667 263.151 47.68C262.54 47.8933 261.924 48 261.303 48H257.594V45.2509H261.303C261.449 45.2509 261.652 45.2315 261.914 45.1927C262.186 45.1442 262.453 45.0327 262.714 44.8582C262.986 44.6836 263.219 44.4218 263.412 44.0727C263.616 43.7236 263.718 43.2388 263.718 42.6182C263.718 42.4048 263.699 42.1382 263.66 41.8182C263.631 41.4885 263.587 41.1394 263.529 40.7709C263.48 40.3927 263.422 40.0097 263.354 39.6218C263.286 39.2242 263.219 38.8509 263.151 38.5018C263.083 38.1527 263.02 37.8424 262.962 37.5709C262.903 37.2994 262.855 37.0958 262.816 36.96L265.42 36.16ZM260.314 53.28L262.787 50.7782L265.318 53.3091L262.816 55.8109L260.314 53.28Z" fill="white"/>
</svg>
