<svg width="369" height="83" viewBox="0 0 369 83" fill="none" xmlns="http://www.w3.org/2000/svg">
<rect x="5" y="4" width="359.569" height="75" rx="25" fill="#F68D2E"/>
<rect x="0.5" y="0.5" width="368" height="82" rx="27.5" stroke="#F68D2E"/>
<path d="M43.4392 29.152C45.3379 29.152 46.8953 29.3973 48.1113 29.888C49.3486 30.3573 50.2659 31.072 50.8633 32.032C51.4606 32.992 51.7593 34.1973 51.7593 35.648C51.7593 36.864 51.5353 37.8773 51.0873 38.688C50.6393 39.4987 50.0633 40.1493 49.3593 40.64C48.6766 41.1093 47.9513 41.4827 47.1833 41.76L53.4553 52H50.0953L44.5593 42.56H40.0153V52H37.1353V29.152H43.4392ZM43.2793 31.648H40.0153V40.128H43.4392C44.6766 40.128 45.6899 39.968 46.4793 39.648C47.2686 39.3067 47.8446 38.816 48.2073 38.176C48.5913 37.536 48.7833 36.736 48.7833 35.776C48.7833 34.7733 48.5806 33.9733 48.1753 33.376C47.7913 32.7787 47.1939 32.3413 46.3833 32.064C45.5726 31.7867 44.5379 31.648 43.2793 31.648ZM63.2815 34.528C64.7535 34.528 66.0122 34.848 67.0575 35.488C68.1242 36.128 68.9348 37.0347 69.4895 38.208C70.0655 39.36 70.3535 40.7147 70.3535 42.272V43.968H58.6095C58.6522 45.9093 59.1428 47.392 60.0815 48.416C61.0415 49.4187 62.3748 49.92 64.0815 49.92C65.1695 49.92 66.1295 49.824 66.9615 49.632C67.8148 49.4187 68.6895 49.12 69.5855 48.736V51.2C68.7108 51.584 67.8468 51.8613 66.9935 52.032C66.1402 52.224 65.1268 52.32 63.9535 52.32C62.3322 52.32 60.8922 51.9893 59.6335 51.328C58.3962 50.6667 57.4255 49.6853 56.7215 48.384C56.0388 47.0613 55.6975 45.4507 55.6975 43.552C55.6975 41.6747 56.0068 40.064 56.6255 38.72C57.2655 37.376 58.1508 36.3413 59.2815 35.616C60.4335 34.8907 61.7668 34.528 63.2815 34.528ZM63.2495 36.832C61.9055 36.832 60.8388 37.2693 60.0495 38.144C59.2815 38.9973 58.8228 40.192 58.6735 41.728H67.4095C67.4095 40.7467 67.2602 39.8933 66.9615 39.168C66.6628 38.4427 66.2042 37.8773 65.5855 37.472C64.9882 37.0453 64.2095 36.832 63.2495 36.832ZM77.871 52L71.375 34.848H74.383L78.031 44.96C78.2017 45.4293 78.383 45.952 78.575 46.528C78.767 47.104 78.9377 47.6587 79.087 48.192C79.2363 48.704 79.343 49.1413 79.407 49.504H79.535C79.6203 49.1413 79.7377 48.6933 79.887 48.16C80.0577 47.6267 80.239 47.072 80.431 46.496C80.6443 45.92 80.8257 45.408 80.975 44.96L84.623 34.848H87.631L81.103 52H77.871ZM93.161 34.848V52H90.345V34.848H93.161ZM91.785 28.416C92.2117 28.416 92.585 28.5653 92.905 28.864C93.2463 29.1413 93.417 29.5893 93.417 30.208C93.417 30.8053 93.2463 31.2533 92.905 31.552C92.585 31.8507 92.2117 32 91.785 32C91.3157 32 90.921 31.8507 90.601 31.552C90.281 31.2533 90.121 30.8053 90.121 30.208C90.121 29.5893 90.281 29.1413 90.601 28.864C90.921 28.5653 91.3157 28.416 91.785 28.416ZM105.219 34.528C106.691 34.528 107.95 34.848 108.995 35.488C110.062 36.128 110.872 37.0347 111.427 38.208C112.003 39.36 112.291 40.7147 112.291 42.272V43.968H100.547C100.59 45.9093 101.08 47.392 102.019 48.416C102.979 49.4187 104.312 49.92 106.019 49.92C107.107 49.92 108.067 49.824 108.899 49.632C109.752 49.4187 110.627 49.12 111.523 48.736V51.2C110.648 51.584 109.784 51.8613 108.931 52.032C108.078 52.224 107.064 52.32 105.891 52.32C104.27 52.32 102.83 51.9893 101.571 51.328C100.334 50.6667 99.363 49.6853 98.659 48.384C97.9763 47.0613 97.635 45.4507 97.635 43.552C97.635 41.6747 97.9443 40.064 98.563 38.72C99.203 37.376 100.088 36.3413 101.219 35.616C102.371 34.8907 103.704 34.528 105.219 34.528ZM105.187 36.832C103.843 36.832 102.776 37.2693 101.987 38.144C101.219 38.9973 100.76 40.192 100.611 41.728H109.347C109.347 40.7467 109.198 39.8933 108.899 39.168C108.6 38.4427 108.142 37.8773 107.523 37.472C106.926 37.0453 106.147 36.832 105.187 36.832ZM127.105 42.304C126.977 41.856 126.849 41.4187 126.721 40.992C126.593 40.544 126.475 40.128 126.369 39.744C126.283 39.3387 126.198 38.9653 126.113 38.624C126.027 38.2827 125.963 37.9947 125.921 37.76H125.793C125.75 37.9947 125.686 38.2827 125.601 38.624C125.537 38.9653 125.451 39.3387 125.345 39.744C125.259 40.1493 125.153 40.576 125.025 41.024C124.918 41.4507 124.79 41.888 124.641 42.336L121.569 51.968H118.369L113.665 34.816H116.577L118.945 43.968C119.115 44.5867 119.275 45.216 119.425 45.856C119.574 46.4747 119.702 47.072 119.809 47.648C119.937 48.2027 120.022 48.6827 120.065 49.088H120.193C120.257 48.832 120.331 48.512 120.417 48.128C120.502 47.744 120.587 47.3387 120.673 46.912C120.779 46.4853 120.886 46.0587 120.993 45.632C121.121 45.2053 121.238 44.8213 121.345 44.48L124.385 34.816H127.457L130.401 44.48C130.55 44.9707 130.699 45.4933 130.849 46.048C131.019 46.6027 131.169 47.1467 131.297 47.68C131.425 48.192 131.51 48.6507 131.553 49.056H131.681C131.723 48.6933 131.798 48.2453 131.905 47.712C132.033 47.1573 132.171 46.56 132.321 45.92C132.491 45.2587 132.662 44.608 132.833 43.968L135.233 34.816H138.113L133.345 51.968H130.049L127.105 42.304ZM157.872 34.56C159.963 34.56 161.51 35.0187 162.512 35.936C163.515 36.8533 164.016 38.3147 164.016 40.32V52H161.968L161.424 49.568H161.296C160.806 50.1867 160.294 50.7093 159.76 51.136C159.248 51.5413 158.651 51.84 157.968 52.032C157.307 52.224 156.496 52.32 155.536 52.32C154.512 52.32 153.584 52.1387 152.752 51.776C151.942 51.4133 151.302 50.8587 150.832 50.112C150.363 49.344 150.128 48.384 150.128 47.232C150.128 45.5253 150.8 44.2133 152.144 43.296C153.488 42.3573 155.558 41.8453 158.352 41.76L161.264 41.664V40.64C161.264 39.2107 160.955 38.2187 160.336 37.664C159.718 37.1093 158.843 36.832 157.712 36.832C156.816 36.832 155.963 36.9707 155.152 37.248C154.342 37.504 153.584 37.8027 152.88 38.144L152.016 36.032C152.763 35.6267 153.648 35.2853 154.672 35.008C155.696 34.7093 156.763 34.56 157.872 34.56ZM158.704 43.712C156.571 43.7973 155.088 44.1387 154.256 44.736C153.446 45.3333 153.04 46.176 153.04 47.264C153.04 48.224 153.328 48.928 153.904 49.376C154.502 49.824 155.259 50.048 156.176 50.048C157.627 50.048 158.832 49.6533 159.792 48.864C160.752 48.0533 161.232 46.816 161.232 45.152V43.616L158.704 43.712ZM177.57 34.528C179.618 34.528 181.164 35.0293 182.21 36.032C183.255 37.0133 183.778 38.6133 183.778 40.832V52H180.994V41.024C180.994 39.6373 180.684 38.6027 180.066 37.92C179.447 37.2373 178.476 36.896 177.154 36.896C175.255 36.896 173.943 37.4293 173.218 38.496C172.492 39.5627 172.13 41.0987 172.13 43.104V52H169.314V34.848H171.586L172.002 37.184H172.162C172.546 36.5867 173.015 36.096 173.57 35.712C174.146 35.3067 174.775 35.008 175.458 34.816C176.14 34.624 176.844 34.528 177.57 34.528ZM195.175 52.32C193.042 52.32 191.335 51.584 190.055 50.112C188.775 48.6187 188.135 46.4 188.135 43.456C188.135 40.512 188.775 38.2933 190.055 36.8C191.356 35.2853 193.074 34.528 195.207 34.528C196.103 34.528 196.882 34.6453 197.543 34.88C198.204 35.0933 198.78 35.392 199.271 35.776C199.762 36.16 200.178 36.5867 200.519 37.056H200.711C200.69 36.7787 200.647 36.3733 200.583 35.84C200.54 35.2853 200.519 34.848 200.519 34.528V27.68H203.335V52H201.063L200.647 49.696H200.519C200.178 50.1867 199.762 50.6347 199.271 51.04C198.78 51.424 198.194 51.7333 197.511 51.968C196.85 52.2027 196.071 52.32 195.175 52.32ZM195.623 49.984C197.436 49.984 198.706 49.4933 199.431 48.512C200.178 47.5093 200.551 46.0053 200.551 44V43.488C200.551 41.3547 200.199 39.7227 199.495 38.592C198.791 37.44 197.49 36.864 195.591 36.864C194.076 36.864 192.935 37.472 192.167 38.688C191.42 39.8827 191.047 41.4933 191.047 43.52C191.047 45.568 191.42 47.1573 192.167 48.288C192.935 49.4187 194.087 49.984 195.623 49.984ZM226.97 34.528C227.29 34.528 227.631 34.5493 227.994 34.592C228.378 34.6133 228.709 34.656 228.986 34.72L228.634 37.312C228.357 37.248 228.047 37.1947 227.706 37.152C227.386 37.1093 227.077 37.088 226.778 37.088C226.117 37.088 225.487 37.2267 224.89 37.504C224.293 37.7813 223.759 38.176 223.29 38.688C222.821 39.1787 222.447 39.776 222.17 40.48C221.914 41.184 221.786 41.9733 221.786 42.848V52H218.97V34.848H221.274L221.594 37.984H221.722C222.085 37.344 222.522 36.768 223.034 36.256C223.546 35.7227 224.133 35.3067 224.794 35.008C225.455 34.688 226.181 34.528 226.97 34.528ZM238.188 34.528C239.66 34.528 240.918 34.848 241.964 35.488C243.03 36.128 243.841 37.0347 244.396 38.208C244.972 39.36 245.26 40.7147 245.26 42.272V43.968H233.516C233.558 45.9093 234.049 47.392 234.988 48.416C235.948 49.4187 237.281 49.92 238.988 49.92C240.076 49.92 241.036 49.824 241.868 49.632C242.721 49.4187 243.596 49.12 244.492 48.736V51.2C243.617 51.584 242.753 51.8613 241.9 52.032C241.046 52.224 240.033 52.32 238.86 52.32C237.238 52.32 235.798 51.9893 234.54 51.328C233.302 50.6667 232.332 49.6853 231.628 48.384C230.945 47.0613 230.604 45.4507 230.604 43.552C230.604 41.6747 230.913 40.064 231.532 38.72C232.172 37.376 233.057 36.3413 234.188 35.616C235.34 34.8907 236.673 34.528 238.188 34.528ZM238.156 36.832C236.812 36.832 235.745 37.2693 234.956 38.144C234.188 38.9973 233.729 40.192 233.58 41.728H242.316C242.316 40.7467 242.166 39.8933 241.868 39.168C241.569 38.4427 241.11 37.8773 240.492 37.472C239.894 37.0453 239.116 36.832 238.156 36.832ZM255.706 34.528C256.837 34.528 257.85 34.7413 258.746 35.168C259.664 35.5947 260.442 36.2453 261.082 37.12H261.242L261.626 34.848H263.866V52.288C263.866 53.9093 263.589 55.264 263.034 56.352C262.48 57.4613 261.637 58.2933 260.506 58.848C259.376 59.4027 257.936 59.68 256.186 59.68C254.949 59.68 253.808 59.584 252.762 59.392C251.738 59.2213 250.821 58.9547 250.01 58.592V56C250.565 56.2773 251.173 56.512 251.834 56.704C252.496 56.9173 253.21 57.0773 253.978 57.184C254.746 57.2907 255.536 57.344 256.346 57.344C257.818 57.344 258.97 56.9067 259.802 56.032C260.656 55.1787 261.082 54.0053 261.082 52.512V51.84C261.082 51.584 261.093 51.2213 261.114 50.752C261.136 50.2613 261.157 49.92 261.178 49.728H261.05C260.453 50.6027 259.706 51.2533 258.81 51.68C257.936 52.1067 256.912 52.32 255.738 52.32C253.52 52.32 251.781 51.5413 250.522 49.984C249.285 48.4267 248.666 46.2507 248.666 43.456C248.666 41.6213 248.944 40.0427 249.498 38.72C250.074 37.376 250.885 36.3413 251.93 35.616C252.976 34.8907 254.234 34.528 255.706 34.528ZM256.09 36.896C255.13 36.896 254.309 37.152 253.626 37.664C252.965 38.176 252.453 38.9227 252.09 39.904C251.749 40.8853 251.578 42.08 251.578 43.488C251.578 45.6 251.962 47.2213 252.73 48.352C253.52 49.4613 254.661 50.016 256.154 50.016C257.029 50.016 257.776 49.9093 258.394 49.696C259.013 49.4613 259.525 49.1093 259.93 48.64C260.336 48.1493 260.634 47.5307 260.826 46.784C261.018 46.0373 261.114 45.152 261.114 44.128V43.456C261.114 41.8987 260.933 40.64 260.57 39.68C260.229 38.72 259.685 38.016 258.938 37.568C258.192 37.12 257.242 36.896 256.09 36.896ZM272.13 34.848V52H269.314V34.848H272.13ZM270.754 28.416C271.18 28.416 271.554 28.5653 271.874 28.864C272.215 29.1413 272.386 29.5893 272.386 30.208C272.386 30.8053 272.215 31.2533 271.874 31.552C271.554 31.8507 271.18 32 270.754 32C270.284 32 269.89 31.8507 269.57 31.552C269.25 31.2533 269.09 30.8053 269.09 30.208C269.09 29.5893 269.25 29.1413 269.57 28.864C269.89 28.5653 270.284 28.416 270.754 28.416ZM288.732 47.264C288.732 48.3733 288.454 49.3013 287.9 50.048C287.345 50.7947 286.556 51.36 285.532 51.744C284.508 52.128 283.292 52.32 281.884 52.32C280.689 52.32 279.654 52.224 278.78 52.032C277.926 51.84 277.169 51.5733 276.508 51.232V48.672C277.19 49.0133 278.012 49.3333 278.972 49.632C279.953 49.9093 280.945 50.048 281.948 50.048C283.377 50.048 284.412 49.824 285.052 49.376C285.692 48.9067 286.012 48.288 286.012 47.52C286.012 47.0933 285.894 46.7093 285.66 46.368C285.425 46.0267 284.998 45.6853 284.38 45.344C283.782 45.0027 282.918 44.6187 281.788 44.192C280.678 43.7653 279.729 43.3387 278.94 42.912C278.15 42.4853 277.542 41.9733 277.116 41.376C276.689 40.7787 276.476 40.0107 276.476 39.072C276.476 37.6213 277.062 36.5013 278.236 35.712C279.43 34.9227 280.988 34.528 282.908 34.528C283.953 34.528 284.924 34.6347 285.82 34.848C286.737 35.04 287.59 35.3173 288.38 35.68L287.42 37.92C286.95 37.7067 286.449 37.5253 285.916 37.376C285.404 37.2053 284.881 37.0773 284.348 36.992C283.814 36.8853 283.27 36.832 282.716 36.832C281.564 36.832 280.678 37.024 280.06 37.408C279.462 37.7707 279.164 38.272 279.164 38.912C279.164 39.3813 279.302 39.7867 279.58 40.128C279.857 40.448 280.316 40.768 280.956 41.088C281.617 41.3867 282.492 41.7493 283.58 42.176C284.668 42.5813 285.596 42.9973 286.364 43.424C287.132 43.8507 287.718 44.3733 288.124 44.992C288.529 45.5893 288.732 46.3467 288.732 47.264ZM298.604 50.016C299.031 50.016 299.468 49.984 299.916 49.92C300.364 49.8347 300.727 49.7493 301.004 49.664V51.808C300.706 51.9573 300.279 52.0747 299.724 52.16C299.17 52.2667 298.636 52.32 298.124 52.32C297.228 52.32 296.396 52.1707 295.628 51.872C294.882 51.552 294.274 51.008 293.804 50.24C293.335 49.472 293.1 48.3947 293.1 47.008V37.024H290.668V35.68L293.132 34.56L294.252 30.912H295.916V34.848H300.876V37.024H295.916V46.944C295.916 47.9893 296.162 48.768 296.652 49.28C297.164 49.7707 297.815 50.016 298.604 50.016ZM311.063 34.528C312.535 34.528 313.793 34.848 314.839 35.488C315.905 36.128 316.716 37.0347 317.271 38.208C317.847 39.36 318.135 40.7147 318.135 42.272V43.968H306.391C306.433 45.9093 306.924 47.392 307.863 48.416C308.823 49.4187 310.156 49.92 311.863 49.92C312.951 49.92 313.911 49.824 314.743 49.632C315.596 49.4187 316.471 49.12 317.367 48.736V51.2C316.492 51.584 315.628 51.8613 314.775 52.032C313.921 52.224 312.908 52.32 311.735 52.32C310.113 52.32 308.673 51.9893 307.415 51.328C306.177 50.6667 305.207 49.6853 304.503 48.384C303.82 47.0613 303.479 45.4507 303.479 43.552C303.479 41.6747 303.788 40.064 304.407 38.72C305.047 37.376 305.932 36.3413 307.063 35.616C308.215 34.8907 309.548 34.528 311.063 34.528ZM311.031 36.832C309.687 36.832 308.62 37.2693 307.831 38.144C307.063 38.9973 306.604 40.192 306.455 41.728H315.191C315.191 40.7467 315.041 39.8933 314.743 39.168C314.444 38.4427 313.985 37.8773 313.367 37.472C312.769 37.0453 311.991 36.832 311.031 36.832ZM330.501 34.528C330.821 34.528 331.163 34.5493 331.525 34.592C331.909 34.6133 332.24 34.656 332.517 34.72L332.165 37.312C331.888 37.248 331.579 37.1947 331.237 37.152C330.917 37.1093 330.608 37.088 330.309 37.088C329.648 37.088 329.019 37.2267 328.421 37.504C327.824 37.7813 327.291 38.176 326.821 38.688C326.352 39.1787 325.979 39.776 325.701 40.48C325.445 41.184 325.317 41.9733 325.317 42.848V52H322.501V34.848H324.805L325.125 37.984H325.253C325.616 37.344 326.053 36.768 326.565 36.256C327.077 35.7227 327.664 35.3067 328.325 35.008C328.987 34.688 329.712 34.528 330.501 34.528Z" fill="white"/>
</svg>
