<svg width="58" height="58" viewBox="0 0 58 58" fill="none" xmlns="http://www.w3.org/2000/svg">
<g filter="url(#filter0_d_708_1130)">
<circle cx="29" cy="25" r="20" fill="#F68D2E"/>
</g>
<g filter="url(#filter1_d_708_1130)">
<circle cx="29" cy="25" r="25" fill="#F68D2E" fill-opacity="0.28" shape-rendering="crispEdges"/>
</g>
<path d="M37.4224 19.3341L29.4282 16.0827C29.1535 15.9724 28.8452 15.9724 28.5705 16.0827L20.5763 19.3341C20.2278 19.4793 20 19.787 20 20.1237C20 20.4605 20.2278 20.7682 20.5763 20.9133L28.5705 24.1647C28.7045 24.217 28.8519 24.246 28.9993 24.246C29.1467 24.246 29.2942 24.217 29.4282 24.1647L37.4224 20.9133C37.7709 20.7682 37.9987 20.4605 37.9987 20.1237C37.9987 19.7869 37.7709 19.4793 37.4224 19.3341Z" fill="black"/>
<path d="M37.9043 23.0048C37.6687 22.5694 37.0693 22.3834 36.5673 22.587L29 25.664L21.4327 22.587C20.9301 22.3828 20.3307 22.5688 20.0957 23.0048C19.8595 23.4403 20.0755 23.9591 20.578 24.1632L28.5727 27.4144C28.7081 27.4694 28.8541 27.4971 29 27.4971C29.1459 27.4971 29.2919 27.4694 29.4273 27.4144L37.422 24.1632C37.9245 23.9591 38.1405 23.4403 37.9043 23.0048Z" fill="black"/>
<path d="M37.9043 26.2561C37.6687 25.8206 37.0693 25.6346 36.5673 25.8382L29 28.9158L21.4327 25.8382C20.9301 25.6341 20.3307 25.82 20.0957 26.2561C19.8595 26.6915 20.0755 27.2103 20.578 27.4144L28.5727 30.6661C28.7081 30.7211 28.8541 30.7489 29 30.7489C29.1459 30.7489 29.2919 30.7211 29.4273 30.6661L37.422 27.4144C37.9245 27.2103 38.1405 26.6915 37.9043 26.2561Z" fill="black"/>
<path d="M37.9043 29.5077C37.6687 29.0722 37.0693 28.8851 36.5673 29.0898L29 32.1669L21.4327 29.0898C20.9301 28.8851 20.3307 29.0722 20.0957 29.5077C19.8595 29.9431 20.0755 30.4619 20.578 30.6661L28.5727 33.9172C28.7081 33.9722 28.8541 34 29 34C29.1459 34 29.2919 33.9722 29.4273 33.9172L37.422 30.6661C37.9245 30.4619 38.1405 29.9431 37.9043 29.5077Z" fill="black"/>
<defs>
<filter id="filter0_d_708_1130" x="5" y="5" width="48" height="48" filterUnits="userSpaceOnUse" color-interpolation-filters="sRGB">
<feFlood flood-opacity="0" result="BackgroundImageFix"/>
<feColorMatrix in="SourceAlpha" type="matrix" values="0 0 0 0 0 0 0 0 0 0 0 0 0 0 0 0 0 0 127 0" result="hardAlpha"/>
<feOffset dy="4"/>
<feGaussianBlur stdDeviation="2"/>
<feComposite in2="hardAlpha" operator="out"/>
<feColorMatrix type="matrix" values="0 0 0 0 0 0 0 0 0 0 0 0 0 0 0 0 0 0 0.25 0"/>
<feBlend mode="normal" in2="BackgroundImageFix" result="effect1_dropShadow_708_1130"/>
<feBlend mode="normal" in="SourceGraphic" in2="effect1_dropShadow_708_1130" result="shape"/>
</filter>
<filter id="filter1_d_708_1130" x="0" y="0" width="58" height="58" filterUnits="userSpaceOnUse" color-interpolation-filters="sRGB">
<feFlood flood-opacity="0" result="BackgroundImageFix"/>
<feColorMatrix in="SourceAlpha" type="matrix" values="0 0 0 0 0 0 0 0 0 0 0 0 0 0 0 0 0 0 127 0" result="hardAlpha"/>
<feOffset dy="4"/>
<feGaussianBlur stdDeviation="2"/>
<feComposite in2="hardAlpha" operator="out"/>
<feColorMatrix type="matrix" values="0 0 0 0 0 0 0 0 0 0 0 0 0 0 0 0 0 0 0.25 0"/>
<feBlend mode="normal" in2="BackgroundImageFix" result="effect1_dropShadow_708_1130"/>
<feBlend mode="normal" in="SourceGraphic" in2="effect1_dropShadow_708_1130" result="shape"/>
</filter>
</defs>
</svg>
