<svg viewBox="0 0 846.66 846.66" xml:space="preserve" xmlns="http://www.w3.org/2000/svg" shape-rendering="geometricPrecision" text-rendering="geometricPrecision" image-rendering="optimizeQuality" fill-rule="evenodd" clip-rule="evenodd"><path d="M31.56 71.06H815.1c11.39 0 20.63 9.24 20.63 20.63v541.95c0 11.4-9.24 20.63-20.63 20.63H557.2v80.07h134.07c27.14 0 27.14 41.26 0 41.26H155.39c-27.13 0-27.13-41.26 0-41.26h134.07v-80.07H31.56c-11.39 0-20.63-9.23-20.63-20.63V91.69c0-11.39 9.24-20.63 20.63-20.63zm644.83 155.67 5.09 64.66c2.01 27.04-39.1 30.09-41.11 3.06l-1.99-25.57L427 440c-9.5 8.02-24.02 5.84-30.68-4.75l-64.15-101.7-126 142.79c-17.89 20.23-48.67-7.02-30.78-27.23l144.14-163.36c9.14-10.32 25.56-8.83 32.79 2.66l66.45 105.33 192.46-155.8-23.21-6c-26.18-6.78-15.86-46.59 10.32-39.81l62.4 16.15c8.95 2.17 14.8 9.55 15.65 18.45zM515.94 654.27H330.72v80.07h185.22v-80.07zm278.53-541.95H52.19v500.69h742.28V112.32z" fill="#f68d2f" fill-rule="nonzero" class="fill-000000"></path></svg>